<svg width="29" height="26" viewBox="0 0 29 26" fill="none" xmlns="http://www.w3.org/2000/svg">
<path fill-rule="evenodd" clip-rule="evenodd" d="M14.5016 24.3985H24.1546C24.1546 18.6622 24.1882 12.928 24.1693 7.21051L14.5258 1.90514H14.4774L4.83386 7.21051C4.81596 12.928 4.84649 18.6622 4.84649 24.3985H14.5016ZM25.7704 9.98892V26H3.22959V9.98892H0V8.08274L14.4774 0H14.5258L29 8.08274V9.98892H25.7704Z" fill="#0066A6"/>
<path d="M8 8V15.3827H9.62272V16.6881C9.62272 17.2564 9.78833 17.8072 10.0995 18.281L10.8929 19.4838H10.4334V22H16.927V19.4851H16.4675L17.2609 18.2823C17.5734 17.8085 17.7377 17.2577 17.7377 16.6894V15.3841H20.1724V8H8ZM19.3631 8.82075V9.56995C19.0171 9.44576 18.7434 9.16903 18.6218 8.82075H19.3631ZM8.81203 8.82075H9.55327C9.4304 9.17038 9.15661 9.44711 8.81203 9.56995V8.82075ZM8.81203 14.5633V13.8141C9.15794 13.9383 9.43173 14.215 9.55327 14.5633H8.81203ZM16.1163 21.1806H11.2468V20.3059H16.1163V21.1806ZM16.9283 16.6894C16.9283 17.0957 16.8108 17.4886 16.5877 17.8274L15.4939 19.4865H11.8692L10.7753 17.8274C10.5523 17.4899 10.4348 17.0957 10.4348 16.6894V12.1726C10.9075 12.3413 11.2468 12.7976 11.2468 13.3335V15.3841H11.6528C12.358 15.3841 12.8655 15.6378 13.2034 16.1603C13.5173 16.6435 13.6815 17.3684 13.6815 18.2553H14.4936C14.4936 17.1929 14.2879 16.3371 13.8819 15.7107C13.8057 15.5933 13.7229 15.4839 13.6334 15.3841H16.9283V16.6894ZM19.3631 14.5633H18.6218C18.7447 14.2137 19.0185 13.9369 19.3631 13.8141V14.5633ZM19.3631 12.9636C18.5697 13.127 17.942 13.7601 17.7804 14.5633H12.0588V13.3322C12.0588 12.2009 11.1479 11.2817 10.0301 11.2817H9.62406V13.3335C9.38766 13.154 9.11253 13.0257 8.81203 12.9636V10.4204C9.60536 10.2571 10.2331 9.62395 10.3947 8.82075H17.7817C17.9433 9.6226 18.5697 10.2571 19.3644 10.4204L19.3631 12.9636Z" fill="#0066A6"/>
<path d="M14.0878 9.64014C12.9686 9.64014 12.0591 10.5608 12.0591 11.6907C12.0591 12.8205 12.9699 13.7412 14.0878 13.7412C15.2057 13.7412 16.1166 12.8205 16.1166 11.6907C16.1166 10.5608 15.207 9.64014 14.0878 9.64014ZM14.0878 12.9218C13.416 12.9218 12.8698 12.3697 12.8698 11.6907C12.8698 11.0117 13.416 10.4595 14.0878 10.4595C14.7596 10.4595 15.3059 11.0117 15.3059 11.6907C15.3059 12.3697 14.7596 12.9218 14.0878 12.9218Z" fill="#0066A6"/>
<path d="M17.7403 11.2816H16.9282V12.1024H17.7403V11.2816Z" fill="#0066A6"/>
</svg>
