<svg width="34" height="25" viewBox="0 0 34 25" fill="none" xmlns="http://www.w3.org/2000/svg">
<g clip-path="url(#clip0_216_58)">
<path d="M19.3805 23.3305C19.3805 23.6151 19.144 23.8447 18.8509 23.8447H14.4208C14.1277 23.8447 13.8912 23.6151 13.8912 23.3305C13.8912 23.2448 13.8196 23.1769 13.733 23.1769H0.755859V23.2658C0.755859 24.0436 1.40538 24.8537 2.20646 24.8537H31.0452C31.8463 24.8537 32.4958 24.0436 32.4958 23.2658V23.1769H19.5387C19.4521 23.1769 19.3805 23.2464 19.3805 23.3305Z" fill="#0066A6"/>
<path d="M19.2176 15.7938C18.5165 16.363 17.6121 16.7058 16.6262 16.7058C15.6402 16.7058 14.7359 16.363 14.0348 15.7938C12.0512 16.7284 10.6855 18.7028 10.6855 20.9859H22.5685C22.5685 18.7012 21.2011 16.7284 19.2176 15.7938Z" fill="#0066A6"/>
<path d="M16.6267 16.0994C18.4415 16.0994 19.9127 14.671 19.9127 12.9091C19.9127 11.1471 18.4415 9.71879 16.6267 9.71879C14.812 9.71879 13.3408 11.1471 13.3408 12.9091C13.3408 14.671 14.812 16.0994 16.6267 16.0994Z" fill="#0066A6"/>
<path d="M28.9568 12.5338V21.1152C28.9568 21.3237 28.7836 21.4919 28.5687 21.4919H4.68297C4.46812 21.4919 4.29492 21.3237 4.29492 21.1152V6.35537C4.29492 6.14678 4.46812 5.97862 4.68297 5.97862H21.5539C21.5805 5.53718 21.6555 5.10545 21.7754 4.68342H4.11339C3.51882 4.68342 3.03418 5.15396 3.03418 5.73122V22.6917H30.2175V12.2153C29.8095 12.3641 29.3881 12.4692 28.9568 12.5338Z" fill="#0066A6"/>
<path d="M27.9792 0.707302C24.7649 0.707302 22.1602 3.23626 22.1602 6.35703C22.1602 7.37249 22.4366 8.32489 22.9179 9.14793L22.3667 11.1449C22.3367 11.2565 22.4416 11.3583 22.5565 11.3292L24.4368 10.8409C25.4178 11.5734 26.6469 12.0084 27.9792 12.0084C31.1935 12.0084 33.7983 9.47941 33.7983 6.35864C33.7983 3.23787 31.1918 0.707302 27.9792 0.707302ZM25.6809 7.05879C25.2779 7.05879 24.9498 6.74025 24.9498 6.34894C24.9498 5.95763 25.2779 5.63909 25.6809 5.63909C26.0839 5.63909 26.412 5.95763 26.412 6.34894C26.412 6.74025 26.0839 7.05879 25.6809 7.05879ZM27.9709 7.05879C27.5678 7.05879 27.2398 6.74025 27.2398 6.34894C27.2398 5.95763 27.5678 5.63909 27.9709 5.63909C28.3739 5.63909 28.702 5.95763 28.702 6.34894C28.702 6.74025 28.3739 7.05879 27.9709 7.05879ZM30.2609 7.05879C29.8578 7.05879 29.5297 6.74025 29.5297 6.34894C29.5297 5.95763 29.8578 5.63909 30.2609 5.63909C30.6639 5.63909 30.992 5.95763 30.992 6.34894C30.992 6.74025 30.6639 7.05879 30.2609 7.05879Z" fill="#0066A6"/>
</g>
<defs>
<clipPath id="clip0_216_58">
<rect width="33.0424" height="24.1463" fill="white" transform="translate(0.755859 0.707321)"/>
</clipPath>
</defs>
</svg>
