<svg width="29" height="26" viewBox="0 0 29 26" fill="none" xmlns="http://www.w3.org/2000/svg">
<path fill-rule="evenodd" clip-rule="evenodd" d="M14.5016 24.3985H24.1546C24.1546 18.6622 24.1882 12.928 24.1693 7.21051L14.5258 1.90514H14.4774L4.83386 7.21051C4.81596 12.928 4.84649 18.6622 4.84649 24.3985H14.5016ZM25.7704 9.98892V26H3.22959V9.98892H0V8.08274L14.4774 0H14.5258L29 8.08274V9.98892H25.7704Z" fill="#0066A6"/>
<path d="M13.2227 20.9905C13.2227 20.9777 13.2227 20.9713 13.2227 20.965C13.2354 20.6081 13.245 20.248 13.2577 19.8911C13.2705 19.5215 13.28 19.1486 13.2928 18.779C13.3023 18.4699 13.3119 18.1608 13.3214 17.8517C13.3278 17.6637 13.3342 17.4725 13.3406 17.2845C13.3501 16.9881 13.3597 16.6918 13.3692 16.3954C13.382 16.0449 13.3915 15.6944 13.4043 15.3439C13.417 14.987 13.4266 14.6333 13.4393 14.2764C13.4489 14.0087 13.4553 13.7442 13.4648 13.4766C13.4744 13.1388 13.4871 12.801 13.4967 12.4632C13.5063 12.2115 13.5126 11.9566 13.519 11.7048C13.519 11.6985 13.519 11.6921 13.5222 11.6857C13.5254 11.6825 13.5254 11.6825 13.5254 11.6825L13.5286 11.6793C15.3385 11.6793 17.1485 11.6793 18.9585 11.6761C18.968 11.6761 18.9808 11.6761 18.9935 11.6761C18.9967 11.7112 19.0031 11.7431 19.0063 11.7749C19.0254 11.947 19.0445 12.1223 19.0604 12.2943C19.0764 12.4377 19.0891 12.5843 19.105 12.7277C19.1242 12.8934 19.1401 13.0591 19.1592 13.228C19.1751 13.3714 19.1879 13.518 19.2038 13.6614C19.2229 13.8271 19.2389 13.9928 19.258 14.1617C19.2739 14.3051 19.2867 14.4516 19.3026 14.595C19.3217 14.7607 19.3377 14.9264 19.3568 15.0953C19.3727 15.2387 19.3855 15.3853 19.4014 15.5287C19.4173 15.6721 19.4333 15.8187 19.446 15.9621C19.4619 16.1055 19.4747 16.2489 19.4906 16.3923C19.5065 16.5356 19.5225 16.6822 19.5352 16.8256C19.548 16.9467 19.5607 17.0678 19.5735 17.1889C19.5894 17.3355 19.6053 17.4789 19.6181 17.6255C19.6308 17.7465 19.6436 17.8644 19.6563 17.9855C19.6722 18.1321 19.6882 18.2819 19.7041 18.4285C19.7169 18.5464 19.7296 18.6675 19.7424 18.7854C19.7583 18.9319 19.7742 19.0817 19.7902 19.2283C19.8061 19.3717 19.8188 19.5151 19.8348 19.6585C19.8507 19.7987 19.8603 19.9421 19.8794 20.0823C19.9208 20.3946 19.8061 20.6336 19.5575 20.8152C19.4173 20.9172 19.258 20.9713 19.0891 20.9905C19.0286 20.9968 18.9712 21 18.9107 21C17.0338 21 15.1601 21 13.2832 21C13.2609 20.9905 13.245 20.9905 13.2227 20.9905ZM17.1867 18.2213C17.2345 18.2181 17.3301 18.2118 17.4225 18.199C17.652 18.1704 17.8687 18.1002 18.0694 17.9855C18.2574 17.8772 18.4167 17.737 18.5346 17.549C18.6653 17.3387 18.7163 17.1092 18.6749 16.8639C18.643 16.6759 18.5633 16.507 18.4454 16.3572C18.2893 16.1596 18.0885 16.0131 17.8591 15.9079C17.5054 15.7454 17.1357 15.6944 16.7502 15.7454C16.5462 15.7709 16.3487 15.8282 16.167 15.9238C15.9727 16.0226 15.807 16.1533 15.6763 16.3317C15.5425 16.5133 15.4724 16.7173 15.4787 16.9435C15.4819 17.1347 15.5393 17.31 15.6381 17.4725C15.7655 17.6764 15.9376 17.8326 16.1447 17.9537C16.4475 18.1353 16.7852 18.215 17.1867 18.2213ZM15.517 18.0939C15.501 18.1608 15.4947 18.2245 15.4947 18.2883C15.4915 18.5209 15.5552 18.7312 15.6795 18.9256C15.8165 19.1423 16.0045 19.308 16.2276 19.4354C16.4857 19.582 16.7629 19.6617 17.0593 19.684C17.2951 19.7031 17.5277 19.684 17.7539 19.6202C18.028 19.5438 18.2733 19.4163 18.4709 19.2092C18.7258 18.9447 18.8437 18.6292 18.7928 18.2564C18.7864 18.2022 18.7736 18.1512 18.7545 18.0971C18.7418 18.1066 18.7354 18.113 18.7258 18.1194C18.5984 18.2213 18.4709 18.3169 18.3243 18.3902C18.0567 18.5241 17.7699 18.5973 17.4735 18.6292C17.2855 18.6483 17.0943 18.6483 16.9063 18.6324C16.6801 18.6101 16.457 18.5687 16.2403 18.4954C15.9854 18.4093 15.7496 18.2883 15.5425 18.1162C15.5329 18.1066 15.5265 18.1002 15.517 18.0939Z" fill="#0066A6"/>
<path d="M19.529 13.3491C19.4939 13.0081 19.4589 12.6671 19.4206 12.3294C19.4366 12.3262 19.4525 12.323 19.4652 12.3198C19.7903 12.2625 20.0197 11.9789 20.0069 11.6506C19.9942 11.3288 19.752 11.0643 19.4302 11.0293C19.4047 11.0261 19.376 11.0261 19.3505 11.0261C16.2787 11.0261 13.2068 11.0261 10.135 11.0261C9.82908 11.0261 9.53911 11.2396 9.48494 11.571C9.42758 11.9279 9.66976 12.2561 10.0139 12.3198C10.033 12.323 10.0521 12.3262 10.0776 12.3294C10.0426 12.6703 10.0043 13.0081 9.96929 13.3491C9.95655 13.3491 9.9438 13.3523 9.93105 13.3523C9.39571 13.3523 8.86356 13.3523 8.32822 13.3523C8.14658 13.3523 8 13.1993 8 13.0209C8.00319 12.1222 8 11.2236 8 10.3282C8 10.1657 8.13065 10.0032 8.32503 10C8.33459 10 8.34096 10 8.35052 10C12.6109 10 16.8746 10 21.135 10C21.17 10 21.2051 10.0032 21.2401 10.0096C21.3899 10.0446 21.4887 10.1753 21.4887 10.3314C21.4887 10.9687 21.4887 11.606 21.4887 12.2433C21.4887 12.5046 21.4887 12.7627 21.4887 13.024C21.4887 13.1866 21.3804 13.3204 21.2178 13.3491C21.1987 13.3523 21.1796 13.3523 21.1605 13.3523C20.6283 13.3523 20.0962 13.3523 19.5608 13.3523C19.5545 13.3523 19.5449 13.3491 19.529 13.3491Z" fill="#0066A6"/>
<path d="M10.5332 11.6761C10.906 11.6761 11.2757 11.6761 11.6453 11.6761C11.6517 11.7048 11.6453 11.7335 11.6421 11.759C11.6294 11.9343 11.6166 12.1063 11.6007 12.2816C11.588 12.4441 11.5752 12.6098 11.5625 12.7723C11.5529 12.9062 11.5434 13.04 11.5306 13.1738C11.5179 13.3363 11.5051 13.502 11.4924 13.6646C11.4828 13.7984 11.4732 13.929 11.4605 14.0629C11.4478 14.2286 11.435 14.3911 11.4223 14.5568C11.4127 14.6874 11.4031 14.8149 11.3936 14.9456C11.384 15.0858 11.3713 15.2228 11.3617 15.363C11.3522 15.4936 11.3426 15.6211 11.3299 15.7518C11.3171 15.9206 11.3044 16.0895 11.2884 16.2584C11.2789 16.3923 11.2693 16.5229 11.2566 16.6567C11.2438 16.8224 11.2311 16.985 11.2183 17.1507C11.2088 17.2813 11.1992 17.4088 11.1865 17.5394C11.1769 17.6796 11.1642 17.8166 11.1546 17.9569C11.145 18.0843 11.1355 18.215 11.1259 18.3424C11.1132 18.5113 11.1004 18.6834 11.0845 18.8523C11.0749 18.9829 11.0654 19.1136 11.0526 19.2442C11.0399 19.4099 11.0271 19.5788 11.0144 19.7445C11.0048 19.8752 10.9953 20.009 10.9825 20.1396C10.9698 20.3053 10.957 20.4742 10.9443 20.6399C10.9347 20.7419 10.9283 20.8439 10.922 20.949C10.922 20.9618 10.9188 20.9745 10.9188 20.9873C10.9124 20.9873 10.906 20.9905 10.8997 20.9905C10.7658 20.9905 10.6352 20.9936 10.5013 20.9873C10.3197 20.9777 10.1476 20.9267 9.9915 20.8279C9.8258 20.7228 9.70789 20.5794 9.65372 20.3914C9.62823 20.299 9.62186 20.2066 9.63142 20.111C9.64416 19.9931 9.65691 19.8752 9.66966 19.7541C9.68559 19.6075 9.70152 19.4641 9.71745 19.3175C9.7302 19.1996 9.74295 19.0817 9.75569 18.9606C9.77163 18.8172 9.78756 18.6706 9.8003 18.5272C9.81305 18.4062 9.8258 18.2883 9.83854 18.1672C9.85448 18.0238 9.87041 17.8772 9.88634 17.7338C9.89909 17.6159 9.91183 17.498 9.92458 17.3801C9.94051 17.2335 9.95645 17.0901 9.97238 16.9435C9.98512 16.8256 9.99787 16.7077 10.0106 16.5898C10.0265 16.4432 10.0425 16.2967 10.0584 16.1501C10.0743 16.0067 10.0871 15.8665 10.103 15.7231C10.119 15.5797 10.1349 15.4363 10.1476 15.2929C10.1604 15.1718 10.1731 15.0539 10.1859 14.9328C10.2018 14.7894 10.2177 14.6428 10.2337 14.4994C10.2464 14.3815 10.2592 14.2636 10.2719 14.1425C10.2878 13.9991 10.3038 13.8526 10.3197 13.7092C10.3325 13.5881 10.3452 13.4702 10.358 13.3491C10.3739 13.2057 10.3898 13.0591 10.4058 12.9157C10.4185 12.7978 10.4312 12.6799 10.444 12.5588C10.4599 12.4122 10.4759 12.2688 10.4918 12.1223C10.495 12.0075 10.5077 11.8896 10.5205 11.7686C10.5237 11.7399 10.5268 11.708 10.5332 11.6761Z" fill="#0066A6"/>
</svg>
