<svg width="29" height="26" viewBox="0 0 29 26" fill="none" xmlns="http://www.w3.org/2000/svg">
<path fill-rule="evenodd" clip-rule="evenodd" d="M14.5016 24.3985H24.1546C24.1546 18.6622 24.1882 12.928 24.1693 7.21051L14.5258 1.90514H14.4774L4.83386 7.21051C4.81596 12.928 4.84649 18.6622 4.84649 24.3985H14.5016ZM25.7704 9.98892V26H3.22959V9.98892H0V8.08274L14.4774 0H14.5258L29 8.08274V9.98892H25.7704Z" fill="#0066A6"/>
<path fill-rule="evenodd" clip-rule="evenodd" d="M8.92596 19.142V18.2161H8V19.142C8 20.1614 8.83864 21 9.85801 21H10.784V20.068H9.85801C9.34833 20.068 8.92596 19.6517 8.92596 19.142Z" fill="#0066A6"/>
<path fill-rule="evenodd" clip-rule="evenodd" d="M8.92596 9.85801C8.92596 9.34833 9.34833 8.92596 9.85801 8.92596H10.784V8H9.85801C8.83864 8 8 8.83864 8 9.85801V10.784H8.92596V9.85801Z" fill="#0066A6"/>
<path fill-rule="evenodd" clip-rule="evenodd" d="M20.068 19.142C20.068 19.6517 19.6517 20.068 19.142 20.068H18.2161V21H19.142C20.1614 21 21 20.1614 21 19.142V18.2161H20.068V19.142Z" fill="#0066A6"/>
<path fill-rule="evenodd" clip-rule="evenodd" d="M19.142 8H18.2161V8.92596H19.142C19.6517 8.92596 20.068 9.34833 20.068 9.85801V10.784H21V9.85801C21.0021 8.83864 20.1614 8 19.142 8Z" fill="#0066A6"/>
<path fill-rule="evenodd" clip-rule="evenodd" d="M14.498 10.7861C14.498 10.2764 14.0818 9.86011 13.5721 9.86011H10.7861C10.2764 9.86011 9.86011 10.2764 9.86011 10.7861V13.5721C9.86011 14.0818 10.2764 14.498 10.7861 14.498H13.5721C14.0818 14.498 14.498 14.0818 14.498 13.5721V10.7861ZM13.5721 13.5721H10.7861V10.7861H13.5721V13.5721Z" fill="#0066A6"/>
<path d="M12.6442 11.7119H11.7122V12.644H12.6442V11.7119Z" fill="#0066A6"/>
<path fill-rule="evenodd" clip-rule="evenodd" d="M19.1421 18.216V15.43C19.1421 14.9203 18.7258 14.4979 18.2161 14.4979H15.4301C14.9204 14.4979 14.498 14.9203 14.498 15.43V18.216C14.498 18.7257 14.9204 19.1419 15.4301 19.1419H18.2161C18.7258 19.1419 19.1421 18.7257 19.1421 18.216ZM15.4301 15.43H18.2161V18.216H15.4301V15.43Z" fill="#0066A6"/>
<path d="M17.2819 16.356H16.356V17.2819H17.2819V16.356Z" fill="#0066A6"/>
<path fill-rule="evenodd" clip-rule="evenodd" d="M18.216 13.5721H19.1419V10.7861C19.1419 10.2764 18.7257 9.86011 18.216 9.86011H17.2839V10.7861H18.216V13.5721Z" fill="#0066A6"/>
<path d="M17.2841 12.6439H15.4302V13.5699H17.2841V12.6439Z" fill="#0066A6"/>
<path d="M17.2819 10.786H16.356V11.712H17.2819V10.786Z" fill="#0066A6"/>
<path d="M16.3561 9.85803H15.4302V10.784H16.3561V9.85803Z" fill="#0066A6"/>
<path fill-rule="evenodd" clip-rule="evenodd" d="M10.7859 15.2655H9.85791V18.0515C9.85791 18.5612 10.2742 18.9775 10.7839 18.9775H11.7098V18.0515H10.7839V15.2655H10.7859Z" fill="#0066A6"/>
<path d="M13.5702 15.2655H11.7122V16.1915H13.5702V15.2655Z" fill="#0066A6"/>
<path d="M12.6442 17.1195H11.7122V18.0516H12.6442V17.1195Z" fill="#0066A6"/>
<path d="M13.57 18.0515H12.644V18.9775H13.57V18.0515Z" fill="#0066A6"/>
</svg>
