<svg width="29" height="26" viewBox="0 0 29 26" fill="none" xmlns="http://www.w3.org/2000/svg">
<path fill-rule="evenodd" clip-rule="evenodd" d="M14.5016 24.3985H24.1546C24.1546 18.6622 24.1882 12.928 24.1693 7.21051L14.5258 1.90514H14.4774L4.83386 7.21051C4.81596 12.928 4.84649 18.6622 4.84649 24.3985H14.5016ZM25.7704 9.98892V26H3.22959V9.98892H0V8.08274L14.4774 0H14.5258L29 8.08274V9.98892H25.7704Z" fill="#0066A6"/>
<path d="M18.5 19.0001H20C20.3979 19.0001 20.7794 18.8421 21.0607 18.5608C21.342 18.2795 21.5 17.898 21.5 17.5001V14.5001C21.5 14.1023 21.342 13.7208 21.0607 13.4395C20.7794 13.1582 20.3979 13.0001 20 13.0001H9.5C9.10218 13.0001 8.72065 13.1582 8.43934 13.4395C8.15804 13.7208 8 14.1023 8 14.5001V17.5001C8 17.898 8.15804 18.2795 8.43934 18.5608C8.72065 18.8421 9.10218 19.0001 9.5 19.0001H11" stroke="#0066A6" stroke-width="1.5" stroke-linecap="round" stroke-linejoin="round"/>
<path d="M18.5 13V10C18.5 9.60218 18.342 9.22065 18.0607 8.93934C17.7794 8.65804 17.3978 8.5 17 8.5H12.5C12.1022 8.5 11.7206 8.65804 11.4393 8.93934C11.158 9.22065 11 9.60218 11 10V13" stroke="#0066A6" stroke-width="1.5" stroke-linecap="round" stroke-linejoin="round"/>
<path d="M17 16H12.5C11.6716 16 11 16.6716 11 17.5V20.5C11 21.3284 11.6716 22 12.5 22H17C17.8284 22 18.5 21.3284 18.5 20.5V17.5C18.5 16.6716 17.8284 16 17 16Z" stroke="#0066A6" stroke-width="1.5" stroke-linecap="round" stroke-linejoin="round"/>
</svg>
