<svg width="30" height="26" viewBox="0 0 30 26" fill="none" xmlns="http://www.w3.org/2000/svg">
<g clip-path="url(#clip0_7_1530)">
<path fill-rule="evenodd" clip-rule="evenodd" d="M14.5294 24.3985H24.203C24.203 18.6604 24.2336 12.9275 24.2146 7.21022L14.5547 1.9061H14.5052L4.84525 7.21022C4.82521 12.9275 4.85685 18.6604 4.85685 24.3985H14.5294ZM25.822 9.98852V26H3.2379V9.98852H0V8.08242L14.5052 0H14.5547L29.0588 8.08242V9.98852H25.822Z" fill="#0066A6"/>
<path fill-rule="evenodd" clip-rule="evenodd" d="M10.0069 18.0032C10.0069 18.0032 11.5119 20.1482 11.262 21.0934C10.9973 22.1002 9.01654 22.1002 8.75182 21.0934C8.50291 20.1482 10.0069 18.0032 10.0069 18.0032ZM9.65252 19.1612C9.65252 19.1612 9.37408 19.6005 9.23803 20.1085C8.87943 21.444 10.0691 22.12 9.86346 20.0616C9.80018 19.4325 9.65252 19.1612 9.65252 19.1612ZM18.6691 11.759H15.8077V10.4612H12.3546V11.759H11.5225C11.5225 11.759 8.68115 11.6203 8.68115 14.6166C8.68115 17.614 8.68115 17.7997 8.68115 17.7997H11.6406V15.4763C11.6406 15.0089 11.8821 14.408 12.728 14.408H18.6691V14.5467C18.6691 15.0642 19.0973 15.4878 19.6204 15.4878H20.1899V10.6792H19.6204C19.0973 10.6792 18.6691 11.1028 18.6691 11.6203V11.759Z" fill="#0066A6"/>
<path fill-rule="evenodd" clip-rule="evenodd" d="M12.0097 8.18359H16.1525C16.3645 8.18359 16.5386 8.35469 16.5386 8.5644V9.68907C16.5386 9.89877 16.3645 10.0709 16.1525 10.0709H12.0097C11.7977 10.0709 11.6248 9.89877 11.6248 9.68907V8.5644C11.6248 8.35469 11.7977 8.18359 12.0097 8.18359Z" fill="#0066A6"/>
</g>
<defs>
<clipPath id="clip0_7_1530">
<rect width="29.0588" height="26" fill="white"/>
</clipPath>
</defs>
</svg>
