<svg width="29" height="26" viewBox="0 0 29 26" fill="none" xmlns="http://www.w3.org/2000/svg">
<path fill-rule="evenodd" clip-rule="evenodd" d="M14.5016 24.3985H24.1546C24.1546 18.6622 24.1882 12.928 24.1693 7.21051L14.5258 1.90514H14.4774L4.83386 7.21051C4.81596 12.928 4.84649 18.6622 4.84649 24.3985H14.5016ZM25.7704 9.98892V26H3.22959V9.98892H0V8.08274L14.4774 0H14.5258L29 8.08274V9.98892H25.7704Z" fill="#0066A6"/>
<path d="M13.5595 12.2855L15.1687 14.0785L10.7695 18.0268L9.16027 16.2338L13.5595 12.2855Z" fill="#0066A6"/>
<path d="M19.252 10.7615L15.71 13.9431L13.7539 11.762L17.3008 8.58231C17.8986 8.04287 18.8271 8.09032 19.3646 8.69291C19.9021 9.2955 19.8566 10.2192 19.252 10.7615Z" fill="#0066A6"/>
<path d="M19.8735 11.5323L19.4827 11.0951L19.0194 11.5091L19.2046 11.718L16.3929 14.2396C16.2623 14.3554 16.2572 14.5496 16.3682 14.6782C16.486 14.804 16.6782 14.8138 16.8069 14.7029L19.8488 11.9709C19.9794 11.8551 19.9845 11.6609 19.8735 11.5323Z" fill="#0066A6"/>
<path d="M8.45209 17.68L8.20386 18.4382C8.13501 18.6516 8.25564 18.7841 8.476 18.738L9.25884 18.5756L10.4408 18.3267L8.83411 16.5325L8.45209 17.68Z" fill="#0066A6"/>
<path d="M19.6983 21.1235H8.30466C8.13622 21.1235 8.00146 20.9013 8.00146 20.6235C8.00146 20.3458 8.13622 20.1235 8.30466 20.1235H19.6983C19.8667 20.1235 20.0015 20.3458 20.0015 20.6235C20.0015 20.9013 19.8667 21.1235 19.6983 21.1235Z" fill="#0066A6"/>
</svg>
