<svg width="29" height="26" viewBox="0 0 29 26" fill="none" xmlns="http://www.w3.org/2000/svg">
<path fill-rule="evenodd" clip-rule="evenodd" d="M14.5016 24.3985H24.1546C24.1546 18.6622 24.1882 12.928 24.1693 7.21051L14.5258 1.90514H14.4774L4.83386 7.21051C4.81596 12.928 4.84649 18.6622 4.84649 24.3985H14.5016ZM25.7704 9.98892V26H3.22959V9.98892H0V8.08274L14.4774 0H14.5258L29 8.08274V9.98892H25.7704Z" fill="#0066A6"/>
<path d="M16.48 9V11.592C16.48 11.7639 16.5483 11.9287 16.6698 12.0502C16.7913 12.1717 16.9561 12.24 17.128 12.24H19.72" stroke="#0066A6" stroke-width="1.5" stroke-linecap="round" stroke-linejoin="round"/>
<path d="M18.4241 18.072H13.888C13.5443 18.072 13.2147 17.9355 12.9716 17.6924C12.7286 17.4494 12.592 17.1197 12.592 16.776V10.296C12.592 9.95228 12.7286 9.62264 12.9716 9.37959C13.2147 9.13654 13.5443 9 13.888 9H16.4801L19.7201 12.24V16.776C19.7201 17.1197 19.5835 17.4494 19.3405 17.6924C19.0974 17.9355 18.7678 18.072 18.4241 18.072Z" stroke="#0066A6" stroke-width="1.5" stroke-linecap="round" stroke-linejoin="round"/>
<path d="M17.128 18.0721V19.3681C17.128 19.7118 16.9915 20.0414 16.7484 20.2845C16.5054 20.5275 16.1757 20.6641 15.832 20.6641H11.296C10.9523 20.6641 10.6226 20.5275 10.3796 20.2845C10.1365 20.0414 10 19.7118 10 19.3681V12.888C10 12.5443 10.1365 12.2147 10.3796 11.9716C10.6226 11.7286 10.9523 11.592 11.296 11.592H12.592" stroke="#0066A6" stroke-width="1.5" stroke-linecap="round" stroke-linejoin="round"/>
</svg>
