<svg width="29" height="26" viewBox="0 0 29 26" fill="none" xmlns="http://www.w3.org/2000/svg">
<path fill-rule="evenodd" clip-rule="evenodd" d="M14.5016 24.3985H24.1546C24.1546 18.6622 24.1882 12.928 24.1693 7.21051L14.5258 1.90514H14.4774L4.83386 7.21051C4.81596 12.928 4.84649 18.6622 4.84649 24.3985H14.5016ZM25.7704 9.98892V26H3.22959V9.98892H0V8.08274L14.4774 0H14.5258L29 8.08274V9.98892H25.7704Z" fill="#0066A6"/>
<path d="M14.5 9C10.9107 9 8 11.9107 8 15.5C8 19.0893 10.9107 22 14.5 22C18.0906 22 21 19.0906 21 15.5C21 11.9107 18.0906 9 14.5 9ZM15.7285 18.2508L15.5686 18.932C15.5595 18.9723 15.527 19.0152 15.4971 19.0269C15.4672 19.0386 15.4425 19.049 15.4425 19.049C15.1396 19.1712 14.9017 19.2544 14.7171 19.3025C14.5221 19.3545 14.357 19.3792 14.2127 19.3792C13.8968 19.3792 13.6498 19.2895 13.4795 19.1127C13.3118 18.9385 13.226 18.7214 13.226 18.4679C13.226 18.3834 13.2338 18.2937 13.2481 18.204C13.2611 18.1195 13.2832 18.0155 13.3131 17.8881L13.8162 15.864C13.8396 15.76 13.8643 15.6417 13.8864 15.5195C13.9072 15.4064 13.9176 15.3115 13.9176 15.2374C13.9176 15.1867 13.915 15.1477 13.9111 15.1178C13.9059 15.0762 13.8617 15.0333 13.8214 15.0281C13.7915 15.0242 13.7512 15.0216 13.6979 15.0216C13.6602 15.0216 13.5887 15.0268 13.4626 15.0502C13.3534 15.071 13.2689 15.0892 13.2143 15.1035L12.9231 15.1802C12.8828 15.1906 12.8581 15.1672 12.8672 15.1256L13.0154 14.4925C13.0245 14.4522 13.0557 14.4093 13.0843 14.3963C13.1129 14.3833 13.135 14.3729 13.135 14.3729C13.3911 14.2585 13.6251 14.1714 13.8331 14.1142C14.0515 14.0544 14.2231 14.0258 14.3583 14.0258C14.682 14.0258 14.9277 14.1116 15.0876 14.2819C15.2449 14.4483 15.3255 14.6693 15.3255 14.9371C15.3255 15.0034 15.319 15.0892 15.3047 15.1984C15.2904 15.3063 15.2696 15.4155 15.2423 15.5208L14.7379 17.541C14.708 17.6619 14.6807 17.7802 14.6573 17.8946C14.6365 17.9986 14.6261 18.0818 14.6261 18.1429C14.6261 18.2781 14.6534 18.3314 14.6651 18.3392C14.6781 18.3509 14.7366 18.3873 14.9121 18.3873C14.9459 18.3873 15.0122 18.3834 15.1383 18.3652C15.2579 18.3483 15.319 18.3314 15.3489 18.3197L15.6726 18.2001C15.7142 18.1897 15.7376 18.2105 15.7285 18.2508ZM15.761 13.0794C15.6024 13.2627 15.3918 13.3589 15.1526 13.3589C14.929 13.3589 14.7262 13.2666 14.5676 13.0924C14.4116 12.9221 14.3323 12.7219 14.3323 12.4996C14.3323 12.2682 14.4116 12.0641 14.5663 11.8912C14.7249 11.7144 14.9277 11.6221 15.1526 11.6221C15.397 11.6221 15.6024 11.7079 15.7597 11.8769C15.9131 12.042 15.9924 12.237 15.9924 12.4567C15.9924 12.6933 15.9144 12.9026 15.761 13.0794Z" fill="#0066A6"/>
</svg>
