<svg width="30" height="26" viewBox="0 0 30 26" fill="none" xmlns="http://www.w3.org/2000/svg">
<g clip-path="url(#clip0_128_2375)">
<path fill-rule="evenodd" clip-rule="evenodd" d="M14.544 24.3973H24.2251C24.2251 18.6606 24.2558 12.927 24.2378 7.20796L14.5693 1.90633H14.5207L4.84799 7.20796C4.83004 12.927 4.86065 18.6606 4.86065 24.3973H14.544ZM11.8529 10.6137C11.8529 9.61305 13.0459 8.8044 14.5197 8.8044C15.9903 8.8044 17.1865 9.61305 17.1865 10.6137C17.1865 11.6133 15.9893 12.4219 14.5197 12.4219C13.0459 12.4219 11.8529 11.6133 11.8529 10.6137ZM15.341 13.648V16.436H16.1466C16.5921 16.436 16.9584 16.797 16.9584 17.2353C16.9584 17.6756 16.5921 18.0345 16.1466 18.0345H15.341V19.2877H17.0387C17.4842 19.2877 17.8474 19.6456 17.8474 20.0869C17.8474 20.5272 17.4842 20.8862 17.0387 20.8862H15.341V21.4309C15.341 21.8774 14.9715 22.2426 14.5197 22.2426C14.0678 22.2426 13.6983 21.8774 13.6983 21.4309V13.648C11.8983 13.3527 10.5448 12.1058 10.5448 10.6137C10.5448 8.90144 12.3258 7.51264 14.5197 7.51264C16.7125 7.51264 18.4903 8.90144 18.4903 10.6137C18.4903 12.1058 17.14 13.3527 15.341 13.648ZM25.8457 9.98764V26H3.23903V9.98764H0V8.08131L14.5197 0H14.5682L29.0847 8.08131V9.98764H25.8457Z" fill="#0066A6"/>
</g>
<defs>
<clipPath id="clip0_128_2375">
<rect width="29.0847" height="26" fill="white"/>
</clipPath>
</defs>
</svg>
