<svg width="29" height="26" viewBox="0 0 29 26" fill="none" xmlns="http://www.w3.org/2000/svg">
<g clip-path="url(#clip0_37_75)">
<path fill-rule="evenodd" clip-rule="evenodd" d="M14.5016 24.3985H24.1546C24.1546 18.6622 24.1882 12.928 24.1693 7.21051L14.5258 1.90514H14.4774L4.83386 7.21051C4.81596 12.928 4.84649 18.6622 4.84649 24.3985H14.5016ZM11.6278 13.7554L13.3394 12.0589L21.3629 20.0112C21.406 20.054 21.406 20.1239 21.3629 20.1667L19.8081 21.7077C19.7649 21.7505 19.6944 21.7505 19.6512 21.7077L11.6278 13.7554ZM11.3425 8.83395C11.9467 8.93724 12.9468 8.86421 14.1858 7.87616L15.4742 9.15321L9.15296 15.4153L6.92657 13.2108L11.3425 8.83395ZM9.92247 8.82769C9.96563 8.78491 10.0362 8.78491 10.0793 8.82769L10.3309 9.07392L8.6161 10.7704L8.36767 10.5242C8.32451 10.4814 8.32451 10.4115 8.36767 10.3687L9.92247 8.82769ZM25.7704 9.98892V26H3.22959V9.98892H0V8.08274L14.4774 0H14.5258L29 8.08274V9.98892H25.7704Z" fill="#0066A6"/>
</g>
<defs>
<clipPath id="clip0_37_75">
<rect width="29" height="26" fill="white"/>
</clipPath>
</defs>
</svg>
