<svg width="29" height="26" viewBox="0 0 29 26" fill="none" xmlns="http://www.w3.org/2000/svg">
<path fill-rule="evenodd" clip-rule="evenodd" d="M14.5016 24.3985H24.1546C24.1546 18.6622 24.1882 12.928 24.1693 7.21051L14.5258 1.90514H14.4774L4.83386 7.21051C4.81596 12.928 4.84649 18.6622 4.84649 24.3985H14.5016ZM25.7704 9.98892V26H3.22959V9.98892H0V8.08274L14.4774 0H14.5258L29 8.08274V9.98892H25.7704Z" fill="#0066A6"/>
<path fill-rule="evenodd" clip-rule="evenodd" d="M14.4579 21C16.9196 21 18.9158 20.1039 18.9158 18.9971C18.9158 18.322 18.1711 17.7245 17.0282 17.3619C16.961 17.4828 16.8972 17.5985 16.8386 17.7055C16.3369 18.6051 15.5629 19.6739 14.4096 19.6428C13.2822 19.6118 12.5651 18.5481 12.1014 17.6468L11.9445 17.3429C10.7706 17.7055 10 18.3099 10 18.9971C10 20.1039 11.9962 21 14.4579 21ZM14.4838 8C16.5403 8 18.2056 9.66968 18.2056 11.7279C18.2056 12.8864 17.0627 15.2882 15.9818 17.2273C14.8923 19.1818 13.9528 19.1093 12.9685 17.1979C11.9549 15.2295 10.7602 12.8813 10.7602 11.7279C10.7619 9.66968 12.4289 8 14.4838 8ZM14.4838 9.67486C13.3512 9.67486 12.4324 10.5952 12.4324 11.7296C12.4324 12.864 13.3512 13.7843 14.4838 13.7843C15.6164 13.7843 16.5352 12.864 16.5352 11.7296C16.5352 10.5934 15.6181 9.67486 14.4838 9.67486Z" fill="#0066A6"/>
</svg>
