<svg width="849" height="1096" viewBox="0 0 849 1096" fill="none" xmlns="http://www.w3.org/2000/svg">
<g filter="url(#filter0_d_158_346)">
<path d="M525.862 755.516C528.047 754.201 529.073 753.57 530.257 752.833C529.047 750.203 527.889 747.783 526.547 744.836C530.942 745.231 534.258 745.52 538.31 745.889C538.547 748.966 538.784 752.439 539.074 756.358C542.1 755.963 544.495 755.095 544.758 751.386C544.811 750.571 545.126 749.729 545.469 748.993C547.021 745.599 548.521 745.021 552.916 746.178C556.522 739.207 548.442 736.708 547.232 731.29C548.021 730.869 548.943 729.922 549.758 730.001C552.837 730.237 555.153 728.949 556.811 726.634C558.575 724.161 560.627 723.924 563.391 724.582C567.865 725.634 572.444 726.187 576.944 727.107C579.918 727.712 583.523 732.526 584.102 735.946C584.549 738.602 585.392 741.18 585.813 743.837C586.497 748.072 588.839 750.571 592.971 751.123C594.682 755.858 594.734 760.304 594.234 765.144C593.708 770.431 594.971 775.928 595.84 781.294C596.55 785.556 597.682 789.791 598.945 793.921C599.471 795.657 600.892 797.104 601.629 798.787C603.577 803.311 608.498 806.31 608.314 811.992C608.288 812.965 609.524 814.149 610.419 814.964C612.656 816.99 613.314 819.462 613.13 822.356C612.814 827.091 614.551 830.957 618.156 834.009C620.657 836.139 621.446 838.849 622.262 842.084C624.446 850.738 621.762 858.656 619.999 866.784C619.209 870.441 618.92 874.228 618.156 877.911C617.788 879.7 617.314 881.699 616.183 883.014C611.182 888.88 611.472 895.588 612.104 902.637C612.604 908.188 612.472 913.843 612.051 919.42C611.84 922.418 611.367 925.128 613.182 927.837C613.946 928.968 614.498 930.678 614.288 931.967C613.34 937.517 612.419 943.094 610.814 948.46C609.972 951.274 608.524 954.194 604.84 955.167C602.498 955.772 601.471 957.929 601.393 960.612C601.287 963.927 600.735 967.268 600.235 970.556C600.05 971.739 599.656 973.133 598.892 973.975C594.524 978.605 594.866 984.339 595.05 989.942C595.129 992.362 595.155 994.414 593.287 996.308C592.339 997.281 591.497 998.807 591.418 1000.12C591.05 1007.04 587.339 1012.3 583.234 1017.43C582.707 1018.09 581.891 1018.61 581.628 1019.35C579.47 1025.37 574.523 1028.95 570.18 1033.21C566.785 1036.53 563.338 1038.45 558.627 1038.37C556.759 1038.32 554.838 1038.55 552.969 1038.79C548.179 1039.39 548.179 1039.42 546.442 1035.63C541.6 1034.29 537.258 1033.03 532.836 1031.9C531.02 1031.45 529.126 1031.32 527.257 1031.08C522.967 1030.56 521.678 1029.77 521.757 1025.77C521.915 1018.77 518.283 1013.93 513.73 1009.35C509.256 1004.86 509.493 1003.57 513.967 999.254C515.678 997.597 517.072 995.256 517.809 992.993C519.599 987.627 520.862 986.338 526.494 985.707C530.02 985.312 533.573 985.023 537.073 984.418C541.074 983.734 542.6 981.63 541.337 977.71C540.232 974.186 540.468 971.266 542.232 968.083C542.995 966.741 542.679 964.821 542.942 963.164C544.416 953.589 544.258 944.093 541.942 934.597C541.153 931.388 541.047 927.969 540.732 924.654C540.468 921.945 540.495 919.525 542.626 917.078C546.021 913.212 545.679 910.029 541.837 906.872C539.758 905.163 539.179 903.348 539.231 900.901C539.284 899.297 539.074 897.666 538.968 895.456C532.547 896.482 529.152 900.849 526.02 905.084C524.02 907.793 522.02 909.976 519.257 912.081C515.993 914.553 513.835 918.841 511.967 922.708C510.967 924.759 509.967 926.154 508.046 927.232C503.861 929.599 499.993 932.651 494.913 932.993C494.15 933.045 493.387 933.65 492.676 934.071C486.36 937.728 479.176 934.571 477.57 927.206C476.755 923.392 476.939 919.367 472.044 917.683C471.044 917.341 470.991 914.317 470.36 912.107C469.096 912.16 467.675 912.081 466.333 912.344C462.412 913.054 458.885 912.396 455.596 909.976C452.253 907.53 448.622 906.109 444.437 908.188C443.569 908.608 442.227 908.74 441.358 908.398C435.91 906.215 430.752 908.003 425.489 909.24C418.778 910.818 413.12 907.004 411.62 900.217C411.435 899.402 411.541 897.955 411.199 897.85C405.093 896.035 405.988 889.169 402.251 885.697C400.251 883.83 398.251 881.988 396.356 879.989C394.803 878.332 393.25 876.648 391.987 874.754C390.04 871.808 388.513 868.599 386.54 865.706C383.145 860.708 379.723 855.736 375.986 851.002C371.539 845.346 366.328 840.322 360.222 836.587C357.459 834.903 353.801 833.325 350.301 836.376C346.827 839.401 343.037 836.797 339.484 836.166C336.432 835.64 333.537 834.245 330.537 833.483C327.036 832.588 323.878 833.22 321.431 836.192C319.299 838.77 316.457 839.875 313.115 840.164C311.72 837.691 310.141 835.429 309.194 832.957C308.325 830.721 307.22 827.932 307.851 825.907C310.299 818.016 307.851 812.544 301.141 809.177C301.509 804.627 302.351 800.497 302.088 796.393C301.719 790.028 298.904 788.213 292.298 789.37C291.535 788.292 290.666 787.108 289.824 785.951C285.271 779.585 283.798 779.032 276.218 781.9C273.323 783.004 271.902 782.636 271.35 779.427C270.692 775.481 268.849 772.667 264.507 771.483C263.139 771.115 261.981 768.432 261.586 766.617C261.217 764.933 261.954 762.987 262.296 760.724C255.533 759.988 252.349 755.884 251.77 749.44C250.48 749.361 249.454 749.335 248.454 749.229C243.69 748.677 241.953 746.678 243.059 742.18C243.901 738.786 244.006 736.024 240.795 733.867C240.137 733.42 239.506 732.684 239.243 731.947C237.532 727.107 235.927 722.215 234.242 717.348C233.979 716.612 233.742 715.612 233.163 715.244C229.611 712.955 227.795 709.588 226.716 705.616C225.9 702.591 223.663 701.75 220.821 702.591C218.636 703.223 216.505 704.117 214.373 704.906C209.767 706.59 205.215 704.17 204.767 699.303C204.188 693.122 201.214 688.966 195.872 686.02C189.398 682.442 180.792 684.889 177.766 691.438C175.95 695.358 174.397 699.409 172.476 703.275C171.292 705.643 169.66 707.773 168.081 709.93C166.292 712.377 164.028 714.297 162.686 717.348C160.712 721.767 157.186 725.503 154.396 729.58C153.791 730.448 153.58 731.579 153.475 731.816C146.343 730.395 151.738 723.346 146.606 721.32C144.317 722.162 141.711 722.557 139.843 723.951C136.264 726.634 132.527 727.081 128.527 725.871C125.974 725.108 124.053 725.292 122.579 727.739C122.052 728.607 121.184 729.396 120.289 729.869C117.789 731.211 115.447 733.526 112.21 731.553C109.341 729.79 107.183 725.24 107.815 721.82C108.71 716.901 108.762 712.114 106.973 707.274C105.367 702.933 106.131 698.777 108.815 694.779C111.368 691.018 113.473 686.94 115.631 682.916C117.868 678.76 117.263 675.682 113.763 672.578C110.815 669.974 107.578 667.554 106.815 663.345C106.473 661.53 106.025 659.557 106.446 657.847C107.71 652.85 105.973 648.641 104.341 644.038C102.63 639.25 102.13 633.91 101.867 628.781C101.604 623.336 98.9724 619.18 95.6827 615.418C94.5774 614.156 91.9194 614.103 89.9193 613.787C85.7612 613.13 83.7611 609.053 86.0243 605.554C86.6033 604.686 87.4191 603.976 87.9981 603.108C90.2614 599.741 89.4719 596.742 85.8138 595.006C84.7085 594.48 83.4716 594.243 82.261 593.927C76.0238 592.297 69.7604 590.771 63.5496 589.061C58.523 587.667 57.944 584.695 59.5756 579.697C61.4442 573.936 64.3917 569.228 68.6551 565.045C70.971 562.783 70.9447 559.968 68.8919 557.101C66.3392 553.524 64.1285 549.683 61.7863 545.974C60.1809 543.423 59.0493 540.95 60.2599 537.715C61.3389 534.874 60.5757 532.191 58.8124 529.429C55.128 523.694 55.1807 521.38 58.2861 518.144C59.3651 517.013 60.9705 516.355 62.3916 515.593C65.1023 514.146 66.1023 511.831 66.1813 508.911C66.4444 500.599 66.6287 492.313 67.076 484.001C67.5498 474.978 66.576 466.535 60.3389 459.275C57.4703 455.96 58.9967 453.198 63.1811 452.251C66.1286 451.594 69.4709 450.699 71.6026 448.779C76.0765 444.702 80.7083 443.071 86.5244 444.991C87.077 445.175 87.7349 445.07 88.2613 445.096C88.6034 444.623 89.0771 444.255 89.0245 443.965C87.8139 437.679 89.6824 433.312 95.6827 430.05C98.2355 428.656 99.3145 424.605 101.209 421.87C102.736 419.686 104.394 417.556 106.157 415.583C108.473 413.005 110.973 410.585 113.078 408.402C112.789 407.218 112.789 406.718 112.578 406.403C108.104 400.8 105.71 394.487 106.894 387.332C107.604 382.992 105.315 380.808 101.999 379.809C98.0513 378.625 96.8144 376.073 96.3143 372.47C96.0512 370.655 95.3669 368.866 94.6563 367.156C93.5247 364.447 92.1562 361.922 94.4984 359.002C95.1037 358.239 94.5511 356.292 94.1037 355.03C92.7352 351.032 91.0772 347.112 93.8405 343.614C97.3933 342.877 100.736 342.693 103.63 341.457C107.42 339.852 109.21 343.798 112.262 343.64C112.894 345.797 113.473 347.822 114.078 349.822C114.973 341.93 121.868 340.957 126.684 339.458C132.316 337.695 138.711 338.326 144.79 337.984C145.554 337.932 146.343 338.432 147.554 338.826C147.396 340.536 147.212 342.141 147.08 343.771C146.791 347.086 148.027 349.138 151.001 348.743C157.396 347.901 163.502 348.822 169.713 349.927C171.739 350.269 174.134 348.953 176.266 348.164C179.187 347.06 181.95 345.586 184.898 344.508C190.293 342.509 190.24 342.561 187.687 337.853C185.635 334.091 182.871 330.356 185.292 325.227C186.477 324.964 188.214 323.938 189.187 324.438C196.925 328.278 204.215 324.674 211.662 323.491C220.979 322.018 229.979 331.329 229.663 341.851C235.9 344.903 234.821 349.48 232.821 357.003C240.848 365.446 249.506 373.233 261.454 376.652C264.402 377.494 266.586 377.257 269.165 375.442C267.533 370.471 266.797 365.446 269.113 360.291C269.56 359.291 268.428 357.608 268.034 356.214C267.481 354.293 266.928 352.347 266.112 349.48C268.244 349.979 269.744 349.953 270.771 350.637C274.692 353.294 278.692 352.636 282.824 351.4C285.455 350.611 287.035 348.953 287.929 346.323C290.693 338.274 295.298 336.801 303.641 340.483C306.562 341.772 309.957 342.903 313.431 341.457C312.194 339.747 310.351 338.247 310.009 336.485C309.615 334.381 310.536 332.013 310.93 329.541C312.878 329.541 314.51 329.593 316.141 329.514C317.483 329.462 318.799 329.251 320.378 329.094C321.326 325.884 318.852 323.833 317.062 322.36C313.615 319.492 313.009 316.783 316.72 312.574C313.983 312.574 312.325 312.574 310.536 312.574C310.43 311.022 310.746 309.234 310.167 307.787C308.667 303.946 309.115 300.895 312.667 298.449C313.431 297.923 314.431 296.45 314.194 295.976C312.352 292.136 315.325 291.373 317.641 290.189C323.431 287.269 329.3 284.56 335.011 281.509C338.642 279.588 342.406 279.01 346.38 278.826C348.775 283.376 340.564 284.402 343.932 289.347C344.958 288.453 345.959 287.638 346.853 286.743C348.774 284.823 350.485 282.64 352.59 280.983C353.406 280.325 355.091 280.772 356.38 280.72C356.249 282.061 356.591 284.218 355.933 284.586C353.196 286.112 353.854 289.058 352.617 291.083C350.59 294.398 351.748 296.502 354.906 298.396C357.907 296.476 358.354 293.214 358.591 290.242C358.88 286.322 358.643 282.324 358.222 278.405C357.459 271.487 359.696 268.541 366.644 268.277C370.881 268.12 375.118 268.12 378.671 271.855C378.381 272.986 378.039 274.275 377.723 275.406C383.618 276.458 389.276 277.431 395.356 278.51C400.014 273.801 403.172 273.617 409.409 278.247C414.33 281.903 417.383 281.193 419.331 275.564C420.462 272.328 422.041 269.593 424.226 266.936C426.752 263.911 428.489 260.255 430.673 256.914C436.332 248.286 446.385 239.974 457.017 241.841C461.201 242.578 464.938 243.683 467.122 248.181C469.359 252.784 471.412 253.152 476.333 251.653C477.544 251.285 478.755 250.969 479.992 250.785C485.545 249.943 488.255 246.655 489.124 240.973C490.124 234.345 491.545 228.032 498.177 223.928C502.888 221.035 506.756 216.694 510.73 212.722C511.888 211.565 512.467 209.461 512.651 207.724C513.362 201.201 515.678 199.176 521.494 201.517C524.31 202.648 526.257 202.174 528.52 200.885C530.968 199.491 533.547 198.571 536.337 199.728C539.679 201.096 540.837 199.097 541.811 196.466C542.705 194.02 543.758 191.652 545.048 188.575C544.89 188.364 543.969 187.47 543.442 186.392C541.126 181.525 536.731 181.288 532.336 181.63C527.731 181.972 524.231 181.341 522.257 176.422C521.415 174.318 519.151 172.766 517.467 170.898C523.257 164.69 528.757 158.798 534.231 152.932C531.705 147.882 534.6 144.436 536.995 141.174C539.679 137.518 542.495 133.598 546.179 131.126C552.127 127.101 556.548 120.63 564.206 119.236C564.601 119.157 565.101 119.052 565.364 118.789C573.865 109.951 587.155 109.293 595.971 100.902C597.208 99.7181 599.471 99.6655 601.129 98.8238C605.366 96.6668 609.577 94.4309 613.735 92.1424C617.078 90.3011 620.42 89.8539 623.973 91.5374C625.236 92.1424 626.631 92.4055 628.868 93.1157C628.394 88.8017 628.025 85.198 627.631 81.5943C627.973 81.3313 628.289 81.0682 628.631 80.8052C633.263 85.5663 639.5 83.5408 644.895 85.3295C647.474 86.1976 648.105 85.4348 649.684 81.8836C644.921 81.3313 640.289 80.8052 634.868 80.1739C635.605 75.8862 636.184 72.5192 636.763 69.2838C638.579 69.1786 639.71 69.126 641.316 69.047C640.526 67.8633 639.631 66.7059 639.71 66.627C642.921 63.7335 644.053 57.9991 650.263 58.9987C651.316 59.1565 652.685 57.3152 654.395 56C656.974 56.0526 659.527 57.3678 661.027 60.5507C661.369 61.2609 662.053 61.8659 662.711 62.3394C668.738 66.7322 670.001 70.0729 668.291 76.9384C667.948 78.3325 667.633 79.753 667.133 81.8573C669.133 82.3045 670.843 82.8832 672.58 83.0674C678.291 83.6724 681.897 86.3028 682.186 92.4318C682.212 93.0368 682.528 93.6418 682.765 94.2205C682.844 94.4046 683.028 94.5361 683.16 94.694C690.029 95.1148 690.029 95.1148 692.476 102.401C688.134 107.004 683.712 111.713 679.028 116.685C676.502 115.133 674.08 113.66 671.317 111.976C671.107 115.816 666.58 114.685 665.369 118.21C664.475 120.788 660.632 122.366 658.685 123.892C659.159 127.785 659.501 130.6 659.948 134.256C657.132 133.94 655.106 133.309 653.211 133.625C651.474 133.914 649.869 135.177 647.763 136.255C645.658 134.44 643.342 132.415 641.5 130.81C639.921 132.546 638.447 134.151 636.763 136.018C638.289 136.597 640.394 137.386 642.868 138.307C643.737 141.911 645.553 144.594 649.711 146.593C658.237 150.67 662.501 156.799 665.554 165.848C668.054 173.266 662.448 183.182 654.843 184.997C652.764 185.497 650.763 186.418 648.737 187.128C648.842 187.549 648.948 187.97 649.053 188.417C650.737 188.285 652.395 188.128 654.053 187.996C657.001 191.284 652.211 192.021 652.079 194.599C654.843 195.545 656.764 195.572 657.079 191.784C657.264 189.785 658.001 187.812 658.58 185.445C660.027 186.207 660.948 186.628 661.817 187.128C666.396 189.68 669.58 189.285 672.554 185.024C674.028 182.893 675.501 182.314 677.791 182.84C679.423 183.209 681.081 183.603 682.765 183.735C686.344 183.998 688.213 185.76 687.818 189.495C692.792 188.075 697.45 186.733 702.319 185.366C703.029 186.628 703.687 187.838 704.477 189.206C705.398 188.759 706.082 188.233 706.872 188.022C709.74 187.286 712.793 186.628 715.135 189.075C717.477 191.574 717.819 197.965 715.977 200.675C714.793 202.411 713.424 204.016 712.214 205.752C709.582 209.566 706.292 212.17 701.003 212.091C704.556 214.248 705.292 217.641 706.582 221.061C709.029 227.505 707.608 234.003 708.135 240.421C708.74 247.681 708.845 254.967 709.188 262.254C709.188 262.464 709.082 262.727 709.188 262.885C711.503 267.409 713.951 271.908 713.688 277.247C716.819 279.299 715.635 281.877 714.319 284.902C716.214 286.243 718.214 287.638 720.662 289.374C720.083 291.294 719.425 293.372 718.793 295.45C721.793 303.499 720.714 312.969 728.241 320.387C725.609 321.597 723.925 322.649 722.083 323.096C720.293 323.543 718.24 323.07 716.477 323.57C714.293 324.175 712.24 325.358 710.582 326.095C709.082 329.225 707.793 332.04 706.424 334.775C705.871 335.906 704.661 336.932 704.608 338.037C704.424 342.141 705.187 346.376 704.424 350.348C703.608 354.609 703.082 358.476 706.319 363.132C702.266 362.29 699.213 361.659 695.634 360.922C696.266 365.131 696.924 369.576 697.739 375.232C698.161 375.731 699.424 377.257 700.871 378.993C698.634 380.361 696.529 381.229 695.029 382.702C693.45 384.254 692.476 386.411 691.002 388.673C693.266 393.25 695.055 398.301 699.766 401.484C700.266 401.826 700.845 402.273 701.029 402.825C702.924 408.218 705.108 413.557 706.503 419.108C708.635 427.446 711.898 434.838 720.109 439.941C720.609 438.336 721.03 437.258 721.241 436.153C721.951 432.523 724.241 430.629 728.162 430.366C731.689 430.129 733.741 432.628 733.715 435.206C733.662 441.151 737.426 444.044 741.321 447.227C742.584 448.253 743.294 449.937 743.952 450.857C750.663 448.727 754.69 449.884 758.295 454.303C760.427 456.907 760.058 461.905 757.427 466.035C754.558 470.559 755.242 475.399 757.19 479.818C759.743 485.579 763.927 490.367 770.427 491.471C775.928 492.418 775.954 496.496 776.954 500.231C777.928 503.861 776.928 507.07 773.638 508.99C769.927 511.147 769.585 514.33 769.585 518.144C769.611 524.931 769.612 531.612 774.559 537.083C776.586 539.319 778.901 541.187 780.796 543.738C783.191 546.948 783.454 549.604 781.665 552.182C777.454 558.285 778.375 564.887 778.717 571.7C788.534 576.698 789.928 586.247 791.113 595.637C791.955 602.266 792.06 608.974 792.376 615.655C792.455 617.312 792.323 619.048 791.876 620.627C790.744 624.52 789.139 625.072 785.323 623.415C780.586 621.363 776.901 618.207 773.849 613.972C771.796 611.157 768.664 609.131 766.217 606.58C763.374 603.608 760.874 600.451 756.506 599.451C754.795 599.057 753.242 597.558 751.847 596.295C746.426 591.35 741.189 586.194 735.689 581.328C728.609 575.067 721.267 569.149 714.24 562.862C710.977 559.968 707.819 556.812 705.24 553.313C700.898 547.421 697.082 541.187 693.002 535.084C687.765 527.272 686.713 518.223 686.107 509.28C685.765 504.229 683.633 501.073 680.081 498.258C676.396 495.312 676.08 494.575 678.791 491.366C680.449 489.42 681.212 487.578 680.87 485.106C680.765 484.29 680.791 483.37 681.081 482.607C685.818 469.454 683.318 456.749 679.081 444.044C677.37 438.941 676.238 433.628 674.975 428.367C674.738 427.42 675.054 426.289 675.291 425.289C676.186 421.501 675.975 417.845 674.449 414.189C673.817 412.689 673.712 410.953 673.238 409.375C672.475 406.85 671.949 404.14 670.686 401.852C668.738 398.38 667.791 395.039 668.817 391.067C669.37 388.884 669.159 386.516 669.396 384.228C669.712 381.176 670.159 378.125 670.528 375.232C669.264 372.996 667.896 370.602 666.554 368.208C665.396 366.183 664.527 363.868 661.317 365.289C660.553 365.63 659.106 365.578 658.58 365.052C654.211 360.869 649.263 357.187 646.658 351.426C644.342 346.323 644.921 341.43 647.474 336.301C644.816 336.827 642.474 337.274 640.631 337.643C639.026 340.878 637.447 343.745 636.105 346.744C634.526 350.295 635.026 351.452 638.079 354.03C639.473 355.214 641 356.661 641.526 358.318C642.552 361.474 644.184 363.842 646.763 365.946C647.711 366.709 648.079 368.892 647.868 370.286C646.316 381.019 648.211 391.225 651.974 401.641C649.29 404.535 645.447 404.666 641.763 404.114C639.947 403.851 637.315 402.246 636.894 400.747C635.552 395.986 632.631 393.513 627.446 392.803C627.288 393.934 627.104 395.434 626.894 397.196C620.236 398.143 616.499 401.983 615.762 408.928C615.604 410.559 614.367 412.295 613.156 413.531C608.34 418.555 607.735 427.104 610.235 433.628C613.156 441.203 616.078 449.253 616.551 457.223C617.183 468.034 618.841 478.267 623.104 488.236C624.473 491.471 625.762 492.892 628.999 490.998C630.683 496.048 630.683 496.048 624.104 498.547C623.13 502.572 622.236 506.307 621.315 510.174C616.709 511.621 611.867 511.963 608.261 515.882C607.261 516.96 603.603 515.54 600.261 515.198C598.024 520.538 591.445 521.011 586.181 523.274C582.102 525.036 579.944 528.087 579.628 531.533C579.023 538.109 574.97 542.555 571.654 547.553C570.628 549.078 569.286 550.393 567.864 552.077C563.469 551.288 560.101 553.155 557.18 556.68C555.601 558.574 554.206 561.31 550.469 560.179C549.443 559.863 547.6 562.257 546.153 563.441C543.1 565.966 539.942 568.412 537.021 571.069C534.442 573.41 532.099 576.014 529.652 578.513C528.652 579.539 527.784 580.775 526.652 581.643C520.152 586.536 516.809 592.849 517.125 601.109C517.336 606.317 516.783 611.262 514.757 616.418C513.046 620.811 513.572 626.308 514.02 631.227C514.388 635.305 515.309 639.092 512.125 642.459C511.572 643.038 511.23 643.88 511.02 644.669C509.572 650.298 507.94 655.901 506.888 661.609C505.44 669.395 503.677 677.26 503.466 685.125C503.151 696.384 498.887 706.143 494.177 715.928C493.729 716.849 493.203 717.874 493.229 718.848C493.44 725.161 490.571 730.159 486.702 734.762C486.334 735.209 486.15 735.84 485.544 737.024C487.966 737.55 490.124 738.05 492.755 738.629C492.966 740.075 493.203 741.785 493.413 743.39C501.072 745.441 507.467 742.916 513.677 739.312C517.625 737.024 518.336 737.419 519.652 741.68C519.888 742.443 519.967 743.574 520.494 743.889C524.415 746.388 525.889 750.018 525.862 755.516Z" fill="#A4D4FF" fill-opacity="0.71"/>
</g>
<defs>
<filter id="filter0_d_158_346" x="0" y="0" width="848.397" height="1095.09" filterUnits="userSpaceOnUse" color-interpolation-filters="sRGB">
<feFlood flood-opacity="0" result="BackgroundImageFix"/>
<feColorMatrix in="SourceAlpha" type="matrix" values="0 0 0 0 0 0 0 0 0 0 0 0 0 0 0 0 0 0 127 0" result="hardAlpha"/>
<feOffset/>
<feGaussianBlur stdDeviation="28"/>
<feColorMatrix type="matrix" values="0 0 0 0 0.0495833 0 0 0 0 0.0908032 0 0 0 0 0.116667 0 0 0 0.45 0"/>
<feBlend mode="normal" in2="BackgroundImageFix" result="effect1_dropShadow_158_346"/>
<feBlend mode="normal" in="SourceGraphic" in2="effect1_dropShadow_158_346" result="shape"/>
</filter>
</defs>
</svg>
