<svg width="240" height="250" viewBox="0 0 240 250" fill="none" xmlns="http://www.w3.org/2000/svg">
<path d="M25.3579 163.74C20.0733 161.284 18.3294 156.768 16.1363 152.78C15.5286 151.671 15.8985 149.373 16.7176 148.317C18.2502 146.389 20.4168 144.936 22.3985 143.378C25.1465 141.265 27.9473 139.232 31.5408 136.591C28.5286 133.263 26.2827 130.648 23.8782 128.139C20.2847 124.416 19.8884 121.273 21.8965 116.493C22.8213 114.301 23.1384 111.712 23.1384 109.309C23.1648 106.245 24.0368 104.001 26.9168 102.706C28.8193 101.835 30.6953 100.911 32.5713 99.9334C37.7502 97.2396 38.3579 93.4893 33.9717 89.7919C25.5957 82.7139 25.8863 73.893 29.3741 65.204C30.0347 63.5666 32.3335 62.1933 34.1831 61.5594C36.6933 60.6879 39.4677 60.6351 42.5063 60.1861C42.9026 58.5751 43.3254 56.8056 43.8274 54.6928C42.2156 54.1118 40.9209 53.5572 39.5469 53.161C31.0652 50.8105 30.6424 48.9618 30.4839 41.4085C30.4575 40.1672 30.9331 38.9259 30.8274 37.7111C30.5368 34.489 28.5022 32.3234 24.8559 31.5047C19.0957 30.2106 13.2827 29.1014 7.52252 27.8073C0.309092 26.1962 -1.59335 21.4688 1.28673 14.7871C2.97779 10.852 3.32128 6.36223 4.45746 1.37071C12.1465 1.21225 20.6018 -0.266742 29.0571 1.26505C35.7421 2.4535 40.9473 5.88684 44.4616 12.014C46.9453 16.3453 49.7725 20.7029 53.2339 24.2419C58.6506 29.8144 65.2299 33.8816 73.1303 35.3342C77.7015 36.1793 82.2197 37.2357 86.7645 38.1865C98.8661 40.7483 103.332 37.3677 108.167 27.9393C108.907 26.5132 109.647 24.7173 110.915 23.9778C113.055 22.7101 115.169 23.6873 116.067 25.9586C118.366 31.8744 123.069 33.8288 128.882 34.4626C131.102 34.7003 133.216 35.6247 136.254 36.4698C133.85 40.5898 131.974 44.208 129.675 47.562C126.24 52.5536 126.61 55.3002 131.155 59.4202C142.834 70.0371 155.913 70.222 169.785 64.8871C173.511 63.461 177.13 61.7971 180.883 60.4502C184.291 59.2353 187.25 59.6051 189.866 62.7215C194.992 68.8222 201.941 70.6181 209.657 70.2748C216.817 69.9315 223.952 70.222 230.848 72.3876C233.596 73.2591 236.106 74.8173 239.065 76.2171C238.484 77.6432 238.114 78.7525 237.586 79.7825C236.08 82.7404 233.992 85.4871 233.068 88.6035C231.931 92.4329 229.289 94.5721 226.198 96.2624C222.868 98.0847 219.063 99.0883 218.165 103.552C218.059 104.027 217.346 104.714 216.897 104.74C211.771 104.872 211.612 108.332 211.639 112.161C211.639 114.248 211.137 116.308 210.952 118.394C210.714 121.088 209.842 123.729 207.068 124.204C203.923 124.733 202.972 121.669 201.994 119.424C201.228 117.707 201.07 115.753 200.541 113.931C200.145 112.531 199.828 111.026 199.141 109.758C197.133 106.061 194.173 105.796 191.927 109.335C189.84 112.69 187.224 115.093 183.472 116.334C179.958 117.47 177.13 116.915 174.488 114.01C170.921 110.101 169.891 110.128 166.614 114.036C162.624 118.843 158.978 123.94 154.962 129.196C160.775 134.821 161.726 141.529 158.449 148.185C156.389 152.384 152.821 155.949 149.571 159.462C146.454 162.842 143.204 165.8 141.83 170.66C140.324 175.942 137.232 180.775 135.356 185.978C133.11 192.21 128.063 194.112 122.224 195.565C119.899 198.681 121.563 201.797 122.805 204.861C124.708 209.562 126.769 214.237 129.2 219.915C123.228 218.647 118.525 220.311 113.504 217.749C109.99 215.953 105.049 216.798 100.742 216.798C98.4698 216.798 96.6994 218.172 96.5145 220.707C95.9332 227.996 91.4677 231.324 84.9941 233.939C77.4636 237.002 70.4616 241.36 63.3539 245.374C59.047 247.804 54.423 248.623 49.6404 249.494C43.8538 250.55 39.7319 246.721 34.7116 245.585C33.1262 245.216 31.5408 244.397 30.0083 244.529C24.5916 245.031 21.6851 242.522 20.4961 237.504C22.9798 235.259 25.3579 232.909 27.9473 230.796C29.1628 229.792 30.6953 228.683 32.175 228.577C36.4819 228.234 39.0978 225.672 40.7095 222.186C41.9514 219.519 43.8539 217.987 46.2055 216.481C51.4372 213.127 52.2035 211.252 49.9839 205.521C49.0591 203.118 49.0327 201.164 49.7461 198.866C53.1018 188.328 51.0673 178.213 46.7604 168.494C44.3823 163.133 39.0185 161.284 33.7867 159.805C32.7827 159.515 31.3823 160.201 30.299 160.73C28.5551 161.601 27.0225 162.71 25.3579 163.74Z" fill="#A4D4FF" fill-opacity="0.7"/>
</svg>
