<svg width="53" height="267" viewBox="0 0 53 267" fill="none" xmlns="http://www.w3.org/2000/svg">
<path d="M0 263.43C0.147272 261.823 0.423965 260.212 0.415039 258.606C0.397188 254.25 1.00859 250.028 3.21321 246.217C3.93171 244.976 4.98939 243.794 6.17203 243.004C7.22971 242.298 8.49268 241.642 9.55482 243.704C11.4694 247.426 10.9115 251.702 7.97946 254.504C6.90393 255.531 6.04261 257.142 5.7927 258.601C5.29286 261.551 4.10576 264.09 2.20908 266.295C1.78065 266.795 0.754211 266.781 0.00446279 267C0.00446279 265.808 0.00446279 264.621 0.00446279 263.43H0Z" fill="#A4D4FF" fill-opacity="0.7"/>
<path d="M28.7721 200.598C28.1741 201.504 27.5627 202.397 26.987 203.316C26.2774 204.458 25.5723 205.605 24.9118 206.775C24.1933 208.042 23.5194 209.336 22.7295 210.805C26.0409 211.358 26.7103 213.089 25.7686 215.718C24.8895 218.173 24.0906 220.35 21.6093 221.832C20.4535 222.524 19.967 224.474 19.3645 225.933C18.1328 228.928 16.8698 231.869 16.8163 235.274C16.7984 236.35 15.1026 237.809 13.8575 238.331C12.8801 238.742 10.6978 238.371 10.3095 237.662C9.62228 236.399 9.35897 234.422 9.85434 233.096C11.0325 229.945 12.773 227.004 14.2413 223.961C14.5135 223.399 14.692 222.743 14.7188 222.122C14.9196 217.374 15.0178 212.616 15.2811 207.868C15.3391 206.846 15.9282 205.855 16.3343 204.682C17.6508 205.815 18.5211 206.565 19.6814 207.56C21.163 204.383 23.872 202.254 23.747 198.608C23.7068 197.461 24.3896 196.238 24.9386 195.145C25.1171 194.788 26.0319 194.462 26.4024 194.618C27.1253 194.921 28.0179 195.453 28.2723 196.109C28.8167 197.541 29.0086 199.112 29.3389 200.629C29.147 200.62 28.9551 200.612 28.7632 200.607L28.7721 200.598Z" fill="#A4D4FF" fill-opacity="0.7"/>
<path d="M38.9916 162.731C38.9515 164.499 40.4688 166.239 38.532 167.828C38.4115 167.926 38.3758 168.292 38.4561 168.457C40.1341 171.903 37.8983 174.808 36.9968 177.811C36.0551 180.949 35.5598 184.064 35.7874 187.295C35.9257 189.258 34.6449 189.74 33.1811 189.865C31.878 189.977 31.2666 189.276 31.2755 187.826C31.3201 181.225 32.8955 174.897 34.5333 168.578C34.7922 167.574 35.1626 166.578 35.2652 165.556C35.475 163.481 36.5237 162.531 38.9916 162.731Z" fill="#A4D4FF" fill-opacity="0.7"/>
<path d="M42.5224 9.05542C43.0624 14.3661 43.5622 19.5117 44.1245 24.6529C44.2673 25.9515 43.6336 26.4915 42.5313 26.9066C38.5684 28.4061 37.167 27.576 37.118 23.4434C37.0733 19.5697 36.3504 15.7005 37.8454 11.8402C38.6844 9.67575 39.925 9.01525 42.5269 9.05542H42.5224Z" fill="#A4D4FF" fill-opacity="0.7"/>
<path d="M52.0846 126.958C51.259 128.993 50.4289 131.046 49.5944 133.099C49.3221 133.768 48.983 134.42 48.7688 135.107C48.3225 136.544 47.4121 137.709 45.9483 136.968C45.2476 136.615 44.7656 134.964 44.8951 133.996C45.2833 131.122 45.9661 128.283 46.6534 125.463C46.8899 124.499 47.2648 123.303 47.9833 122.799C48.5412 122.406 50.1701 122.598 50.5628 123.106C51.3259 124.106 51.558 125.507 52.0846 126.953V126.958Z" fill="#A4D4FF" fill-opacity="0.7"/>
<path d="M47.2026 44.1775C47.9032 46.7525 49 48 47.2026 51.193C44.5 51.193 44.5383 51.7196 42.3515 51.193C41.9499 51.0948 41.5482 50.3986 41.4099 49.9033C40.071 45.2441 41.7178 43.6018 47.2026 44.1775Z" fill="#A4D4FF" fill-opacity="0.7"/>
<path d="M46.2086 92.0231C48.8728 91.9874 50.4348 93.2102 51.1176 95.6469C51.4925 96.9813 52.1798 98.2755 52.2779 99.6232C52.3672 100.864 51.5148 102.042 50.0956 101.801C49.4128 101.685 48.5426 100.73 48.3685 100.007C48.1186 98.985 48.5337 97.8203 48.4623 96.7313C48.431 96.2047 48.0383 95.3702 47.6456 95.2586C45.8917 94.7632 45.7757 93.6386 46.213 92.0276L46.2086 92.0231Z" fill="#A4D4FF" fill-opacity="0.7"/>
<path d="M43.53 62.2251C44.4627 62.4527 45.3017 62.8097 46.1541 62.8365C48.207 62.9079 48.3855 64.2021 48.1356 65.7195C47.7563 68.0267 45.8685 66.9378 44.7394 66.8887C43.5479 66.8352 42.6642 65.9203 43.2042 64.3851C43.4408 63.7112 43.4274 62.9525 43.53 62.2251Z" fill="#A4D4FF" fill-opacity="0.7"/>
<path d="M51.3178 116.89C50.4342 117.412 49.5059 118.394 48.6847 118.309C48.0019 118.238 47.1049 116.992 46.9086 116.131C46.5783 114.681 47.5244 114.185 49.0061 114.15C50.7332 114.109 50.934 115.096 51.3178 116.885V116.89Z" fill="#A4D4FF" fill-opacity="0.7"/>
<path d="M42.4721 0.0807551C44.3331 -0.334284 44.6187 0.919759 44.6455 2.25859C44.6767 4.03478 43.1728 3.50817 42.2088 3.71793C40.7048 4.04371 40.4326 2.98157 40.4326 1.88818C40.4326 0.607364 40.9548 -0.271805 42.4766 0.0807551H42.4721Z" fill="#A4D4FF" fill-opacity="0.7"/>
<path d="M34.1493 6.65896C33.9976 7.62739 34.1672 8.93498 33.6049 9.47052C33.0292 10.0239 31.6279 10.1221 30.7933 9.832C30.3515 9.67581 29.932 7.75234 30.2132 7.52921C31.1057 6.82855 32.333 6.55632 33.4264 6.1145L34.1493 6.6545V6.65896Z" fill="#A4D4FF" fill-opacity="0.7"/>
</svg>
