<svg width="714" height="733" viewBox="0 0 714 733" fill="none" xmlns="http://www.w3.org/2000/svg">
<path d="M515.87 628.645C622.718 578.435 675.291 532.378 699.409 493.134C646.352 636.061 511.239 732.455 356.717 731.662H356.716C353.01 731.645 350.014 731.415 347.666 731C345.301 730.583 343.69 729.993 342.678 729.32C341.709 728.676 341.353 728.006 341.294 727.321C341.229 726.557 341.509 725.509 342.378 724.123C344.121 721.345 347.826 717.842 353.337 713.722C358.811 709.63 365.94 705.018 374.392 700.003C408.216 679.935 462.808 653.643 515.87 628.645Z" stroke="white" stroke-opacity="0.1" stroke-width="2.66667"/>
<path d="M1.93453 448.56L1.93436 448.559C-2.26297 420.576 15.7045 394.979 51.6202 368.771C87.477 342.606 140.768 316.171 206.174 286.467C243.701 269.431 283.252 252.909 321.85 236.785C333.251 232.022 344.568 227.294 355.726 222.598C404.637 202.012 450.482 182.033 486.684 162.444C504.786 152.649 520.51 142.933 533.014 133.267C545.505 123.612 554.866 113.944 560.145 104.22C565.45 94.446 566.641 84.5837 562.714 74.7201C560.272 68.5854 555.879 62.5235 549.397 56.5141C659.632 124.526 703.56 229.294 711.77 284.257C715.922 312.241 697.953 337.839 662.038 364.046C626.181 390.211 572.891 416.646 507.439 446.349L507.99 447.564L507.438 446.35C469.911 463.386 430.36 479.908 391.762 496.033C380.362 500.795 369.044 505.523 357.886 510.219C308.976 530.805 263.13 550.784 226.929 570.373C208.827 580.168 193.103 589.884 180.598 599.55C168.107 609.205 158.746 618.873 153.468 628.597C148.162 638.371 146.972 648.233 150.898 658.097C153.337 664.224 157.722 670.278 164.191 676.28C54.0582 608.316 10.1356 503.549 1.93453 448.56Z" stroke="white" stroke-opacity="0.1" stroke-width="2.66667"/>
<path d="M356.87 1.33819L356.87 1.3382C360.597 1.35519 363.61 1.58523 365.971 2.00075C368.351 2.41939 369.975 3.01065 370.995 3.6856C371.975 4.33311 372.335 5.00573 372.396 5.69192C372.464 6.45529 372.186 7.50456 371.317 8.8918C369.573 11.6735 365.859 15.1808 360.331 19.3062C354.84 23.404 347.686 28.021 339.203 33.0416C305.256 53.1326 250.442 79.4481 197.141 104.445C89.8426 154.683 37.0793 200.764 12.8922 239.958C66.121 97.0632 201.75 0.544388 356.87 1.33819Z" stroke="white" stroke-opacity="0.1" stroke-width="2.66667"/>
<path d="M511.907 39.2634C546.141 58.4912 552.624 77.4375 551.59 88.6654C550.816 96.8336 544.838 104.802 534.78 113.193C524.889 121.445 511.319 129.892 495.662 139.164C449.327 117.479 415.803 98.7946 392.07 83.0116C369.132 67.7568 355.413 55.2598 348.098 45.4434C360.655 37.9653 369.726 30.9521 375.924 24.8723C381.76 19.1481 385.152 14.1534 386.417 10.2995C413.89 10.4074 442.079 14.9451 475.697 23.8561C486.175 27.0271 502.158 33.8326 511.907 39.2634Z" stroke="white" stroke-opacity="0.1" stroke-width="2.66667"/>
<path d="M709.144 444.106L709.144 444.108C708.377 450.802 704.373 460.396 696.815 471.98C689.28 483.53 678.287 496.942 663.696 511.256C634.638 539.763 591.362 571.79 532.862 599.744C512.454 584.456 492.129 573.099 470.145 561.945C443.675 548.504 420.422 538.407 391.632 525.905C386.956 523.874 382.134 521.78 377.129 519.598C380.904 518.019 384.772 516.416 388.643 514.812C393.501 512.799 398.363 510.785 403.043 508.815C406.087 507.539 409.139 506.26 412.198 504.978C447.744 490.083 484.236 474.791 518.863 459.11C586.086 428.692 635.724 403.545 671.981 377.506C685.638 389.321 695.634 399.246 701.881 409.493C708.209 419.872 710.715 430.622 709.144 444.106Z" stroke="white" stroke-opacity="0.1" stroke-width="2.66667"/>
<path d="M196.133 271.979L196.132 271.979C128.643 302.788 79.0692 332.336 43.4654 358.284C11.6619 333.815 -0.91647 311.575 1.65972 286.156L1.65986 286.154C2.31327 279.638 6.67884 270.143 14.852 258.618C22.9899 247.143 34.7911 233.808 50.0863 219.636C80.5459 191.413 124.793 159.932 181.372 133.248C202.008 148.27 230.671 168.345 334.473 212.554C326.52 215.928 318.571 219.292 310.623 222.583L310.617 222.586C308.887 223.312 307.157 224.038 305.428 224.764C268.943 240.083 232.664 255.315 196.133 271.979Z" stroke="white" stroke-opacity="0.1" stroke-width="2.66667"/>
<path d="M166.546 655.221L166.545 655.219C163.516 645.581 166.806 635.636 175.879 625.264C184.868 614.987 199.377 604.495 218.378 593.829C259.681 613.298 292.072 630.939 316.282 646.561C339.806 661.74 355.518 674.957 364.193 686.026C359.448 688.918 350.586 694.387 342.474 700.802C338.023 704.322 333.757 708.159 330.51 712.044C327.619 715.503 325.428 719.127 324.749 722.694C301.153 722.466 271.958 718.034 244.683 710.943C231.883 706.574 214.161 698.589 198.702 688.67C190.965 683.706 183.827 678.278 178.164 672.601C172.489 666.913 168.368 661.048 166.546 655.221Z" stroke="white" stroke-opacity="0.1" stroke-width="2.66667"/>
</svg>
