<svg width="100" height="103" viewBox="0 0 100 103" fill="none" xmlns="http://www.w3.org/2000/svg">
<g clip-path="url(#clip0_159_433)" filter="url(#filter0_ddd_159_433)">
<path opacity="0.8" d="M49.4878 68.207C45.167 68.207 41.1045 66.4679 38.0486 63.3108C34.9935 60.1536 33.3105 55.9554 33.3105 51.4895C33.3105 47.0244 34.9935 42.8262 38.0486 39.6682C41.1037 36.5111 45.1662 34.7719 49.4878 34.7719C53.8086 34.7719 57.8711 36.5111 60.927 39.6682C63.9821 42.8253 65.665 47.0235 65.665 51.4895C65.665 55.9546 63.9821 60.1528 60.927 63.3108C57.8711 66.4679 53.8086 68.207 49.4878 68.207ZM49.4878 34.9847C40.681 34.9847 33.5164 42.3885 33.5164 51.4895C33.5164 60.5904 40.681 67.9943 49.4878 67.9943C58.2946 67.9943 65.4591 60.5904 65.4591 51.4895C65.4583 42.3885 58.2938 34.9847 49.4878 34.9847Z" fill="#BCDFFF"/>
<path opacity="0.8" d="M49.4875 63.9449C42.8419 63.9449 37.4346 58.3579 37.4346 51.4895C37.4346 44.6211 42.8411 39.034 49.4875 39.034C56.133 39.034 61.5403 44.6211 61.5403 51.4895C61.5403 58.3579 56.133 63.9449 49.4875 63.9449ZM49.4875 40.4528C43.5988 40.4528 38.8075 45.4041 38.8075 51.4895C38.8075 57.5748 43.5988 62.5261 49.4875 62.5261C55.3761 62.5261 60.1674 57.5748 60.1674 51.4895C60.1666 45.4041 55.3761 40.4528 49.4875 40.4528Z" fill="#BCDFFF"/>
<path opacity="0.8" d="M68.9808 62.2341L67.1641 61.2311C68.703 58.2559 69.5162 54.8869 69.5162 51.4895C69.5162 50.6887 69.4716 49.883 69.3832 49.0935L71.4293 48.85C71.5264 49.7204 71.5757 50.6086 71.5757 51.4895C71.5765 55.2355 70.6786 58.9508 68.9808 62.2341Z" fill="#BCDFFF"/>
<path opacity="0.8" d="M64.943 38.3238C61.1201 33.5367 55.4866 30.7913 49.4875 30.7913C45.9917 30.7913 42.5507 31.7353 39.5363 33.5222L38.5117 31.6763C41.8369 29.705 45.6325 28.6631 49.4875 28.6631C56.1042 28.6631 62.3161 31.6908 66.532 36.9697L64.943 38.3238Z" fill="#BCDFFF"/>
<path opacity="0.8" d="M49.4878 72.8129C43.9764 72.8129 38.7945 70.5949 34.8972 66.5674C30.9998 62.5399 28.8535 57.185 28.8535 51.4895C28.8535 49.4697 29.1267 47.4717 29.6652 45.5497L30.9842 45.9445C30.4816 47.7378 30.2273 49.6039 30.2273 51.4903C30.2273 62.4655 38.8673 71.3949 49.4885 71.3949C53.2207 71.3949 56.8402 70.2908 59.9571 68.2014L60.7046 69.3921C57.3638 71.6295 53.4853 72.8129 49.4878 72.8129Z" fill="#BCDFFF"/>
<path opacity="0.7" d="M62.34 63.6829L60.3174 61.7633C62.8136 58.9548 64.1889 55.3059 64.1889 51.4895C64.1889 50.8739 64.1529 50.2551 64.0824 49.6484L66.8088 49.3087C66.8925 50.0278 66.9356 50.7615 66.9356 51.4895C66.9348 56.0193 65.3028 60.3494 62.34 63.6829Z" fill="#BCDFFF"/>
<path opacity="0.7" d="M37.4629 42.7469L35.2188 41.1121C36.6935 38.9507 38.6464 37.1177 40.8679 35.8106C43.1856 34.4468 45.7139 33.6678 48.3816 33.4955L48.553 36.3274C44.0905 36.6162 40.0484 38.9564 37.4629 42.7469Z" fill="#BCDFFF"/>
<path opacity="0.8" d="M49.4881 80C44.9755 80 40.4973 78.8489 36.5389 76.6706C32.7081 74.5626 29.365 71.5025 26.8711 67.8212L29.6835 65.7868C34.2071 72.4651 41.6112 76.453 49.4881 76.453C55.7994 76.453 61.7703 73.9535 66.3001 69.4147L68.6891 71.962C63.515 77.1454 56.6957 80 49.4881 80Z" fill="#BCDFFF"/>
<path opacity="0.8" d="M73.5762 49.6153C73.1598 43.8154 70.7677 38.3141 66.8398 34.1232L69.3055 31.6552C73.7915 36.4415 76.5241 42.7267 77 49.3532L73.5762 49.6153Z" fill="#BCDFFF"/>
<path opacity="0.8" d="M70.5051 68.2879L69.2871 67.3197L69.3372 67.2525C72.7281 62.7 74.5198 57.2489 74.5198 51.4895C74.5198 47.0438 73.4107 42.6587 71.3113 38.81L71.2714 38.7364L72.6099 37.9566L72.6498 38.0302C74.8783 42.1168 76.0556 46.7712 76.0556 51.4895C76.0556 54.5706 75.5656 57.5951 74.5989 60.4796C73.6643 63.2679 72.3039 65.8725 70.5544 68.2216L70.5051 68.2879ZM69.5172 67.2889L70.4761 68.0509C72.1904 65.7342 73.5257 63.1684 74.4463 60.4238C75.4075 57.557 75.8944 54.5512 75.8944 51.4895C75.8944 46.8286 74.7382 42.23 72.5496 38.1871L71.496 38.8011C73.5829 42.6579 74.685 47.0438 74.685 51.4903C74.6842 57.2586 72.8972 62.7203 69.5172 67.2889Z" fill="#BCDFFF"/>
<path opacity="0.8" d="M24.0434 59.1231C23.3515 56.6527 23 54.0852 23 51.4895C23 46.7914 24.171 42.1564 26.3878 38.0868C28.5357 34.1418 31.6291 30.7743 35.3331 28.3501L36.0681 29.5489C28.7446 34.3416 24.373 42.5438 24.373 51.4895C24.373 53.951 24.7056 56.3866 25.3624 58.7275L24.0434 59.1231Z" fill="#BCDFFF"/>
<path opacity="0.8" d="M27.8175 40.6373L24.5879 39.0025L24.6239 38.9264C26.688 34.5705 29.8191 30.7986 33.678 28.0184C37.62 25.1784 42.232 23.4457 47.0154 23.0073L47.0968 23L47.4146 26.7015L47.3332 26.7088C39.0055 27.4716 31.5419 32.7796 27.8528 40.5612L27.8175 40.6373ZM24.8063 38.9248L27.7424 40.4108C31.4566 32.6429 38.9131 27.3406 47.2369 26.5486L46.9481 23.1836C42.2226 23.6309 37.6677 25.3499 33.772 28.1567C29.9576 30.9054 26.8594 34.6271 24.8063 38.9248Z" fill="#BCDFFF"/>
<path opacity="0.8" d="M49.4878 68.207C45.167 68.207 41.1045 66.4679 38.0486 63.3108C34.9935 60.1536 33.3105 55.9554 33.3105 51.4895C33.3105 47.0244 34.9935 42.8262 38.0486 39.6682C41.1037 36.5111 45.1662 34.7719 49.4878 34.7719C53.8086 34.7719 57.8711 36.5111 60.927 39.6682C63.9821 42.8253 65.665 47.0235 65.665 51.4895C65.665 55.9546 63.9821 60.1528 60.927 63.3108C57.8711 66.4679 53.8086 68.207 49.4878 68.207ZM49.4878 34.9847C40.681 34.9847 33.5164 42.3885 33.5164 51.4895C33.5164 60.5904 40.681 67.9943 49.4878 67.9943C58.2946 67.9943 65.4591 60.5904 65.4591 51.4895C65.4583 42.3885 58.2938 34.9847 49.4878 34.9847Z" fill="#BCDFFF"/>
<path opacity="0.8" d="M49.4875 63.9449C42.8419 63.9449 37.4346 58.3579 37.4346 51.4895C37.4346 44.6211 42.8411 39.034 49.4875 39.034C56.133 39.034 61.5403 44.6211 61.5403 51.4895C61.5403 58.3579 56.133 63.9449 49.4875 63.9449ZM49.4875 40.4528C43.5988 40.4528 38.8075 45.4041 38.8075 51.4895C38.8075 57.5748 43.5988 62.5261 49.4875 62.5261C55.3761 62.5261 60.1674 57.5748 60.1674 51.4895C60.1666 45.4041 55.3761 40.4528 49.4875 40.4528Z" fill="#BCDFFF"/>
<path opacity="0.8" d="M68.9808 62.2341L67.1641 61.2311C68.703 58.2559 69.5162 54.8869 69.5162 51.4895C69.5162 50.6887 69.4716 49.883 69.3832 49.0935L71.4293 48.85C71.5264 49.7204 71.5757 50.6086 71.5757 51.4895C71.5765 55.2355 70.6786 58.9508 68.9808 62.2341Z" fill="#BCDFFF"/>
<path opacity="0.8" d="M64.943 38.3238C61.1201 33.5367 55.4866 30.7913 49.4875 30.7913C45.9917 30.7913 42.5507 31.7353 39.5363 33.5222L38.5117 31.6763C41.8369 29.705 45.6325 28.6631 49.4875 28.6631C56.1042 28.6631 62.3161 31.6908 66.532 36.9697L64.943 38.3238Z" fill="#BCDFFF"/>
<path opacity="0.8" d="M49.4878 72.8129C43.9764 72.8129 38.7945 70.5949 34.8972 66.5674C30.9998 62.5399 28.8535 57.185 28.8535 51.4895C28.8535 49.4697 29.1267 47.4717 29.6652 45.5497L30.9842 45.9445C30.4816 47.7378 30.2273 49.6039 30.2273 51.4903C30.2273 62.4655 38.8673 71.3949 49.4885 71.3949C53.2207 71.3949 56.8402 70.2908 59.9571 68.2014L60.7046 69.3921C57.3638 71.6295 53.4853 72.8129 49.4878 72.8129Z" fill="#BCDFFF"/>
<path opacity="0.7" d="M62.34 63.6829L60.3174 61.7633C62.8136 58.9548 64.1889 55.3059 64.1889 51.4895C64.1889 50.8739 64.1529 50.2551 64.0824 49.6484L66.8088 49.3087C66.8925 50.0278 66.9356 50.7615 66.9356 51.4895C66.9348 56.0193 65.3028 60.3494 62.34 63.6829Z" fill="#BCDFFF"/>
<path opacity="0.7" d="M37.4629 42.7469L35.2188 41.1121C36.6935 38.9507 38.6464 37.1177 40.8679 35.8106C43.1856 34.4468 45.7139 33.6678 48.3816 33.4955L48.553 36.3274C44.0905 36.6162 40.0484 38.9564 37.4629 42.7469Z" fill="#BCDFFF"/>
<path opacity="0.8" d="M49.4881 80C44.9755 80 40.4973 78.8489 36.5389 76.6706C32.7081 74.5626 29.365 71.5025 26.8711 67.8212L29.6835 65.7868C34.2071 72.4651 41.6112 76.453 49.4881 76.453C55.7994 76.453 61.7703 73.9535 66.3001 69.4147L68.6891 71.962C63.515 77.1454 56.6957 80 49.4881 80Z" fill="#BCDFFF"/>
<path opacity="0.8" d="M73.5762 49.6153C73.1598 43.8154 70.7677 38.3141 66.8398 34.1232L69.3055 31.6552C73.7915 36.4415 76.5241 42.7267 77 49.3532L73.5762 49.6153Z" fill="#BCDFFF"/>
<path opacity="0.8" d="M70.5051 68.2879L69.2871 67.3197L69.3372 67.2525C72.7281 62.7 74.5198 57.2489 74.5198 51.4895C74.5198 47.0438 73.4107 42.6587 71.3113 38.81L71.2714 38.7364L72.6099 37.9566L72.6498 38.0302C74.8783 42.1168 76.0556 46.7712 76.0556 51.4895C76.0556 54.5706 75.5656 57.5951 74.5989 60.4796C73.6643 63.2679 72.3039 65.8725 70.5544 68.2216L70.5051 68.2879ZM69.5172 67.2889L70.4761 68.0509C72.1904 65.7342 73.5257 63.1684 74.4463 60.4238C75.4075 57.557 75.8944 54.5512 75.8944 51.4895C75.8944 46.8286 74.7382 42.23 72.5496 38.1871L71.496 38.8011C73.5829 42.6579 74.685 47.0438 74.685 51.4903C74.6842 57.2586 72.8972 62.7203 69.5172 67.2889Z" fill="#BCDFFF"/>
<path opacity="0.8" d="M24.0434 59.1231C23.3515 56.6527 23 54.0852 23 51.4895C23 46.7914 24.171 42.1564 26.3878 38.0868C28.5357 34.1418 31.6291 30.7743 35.3331 28.3501L36.0681 29.5489C28.7446 34.3416 24.373 42.5438 24.373 51.4895C24.373 53.951 24.7056 56.3866 25.3624 58.7275L24.0434 59.1231Z" fill="#BCDFFF"/>
<path opacity="0.8" d="M27.8175 40.6373L24.5879 39.0025L24.6239 38.9264C26.688 34.5705 29.8191 30.7986 33.678 28.0184C37.62 25.1784 42.232 23.4457 47.0154 23.0073L47.0968 23L47.4146 26.7015L47.3332 26.7088C39.0055 27.4716 31.5419 32.7796 27.8528 40.5612L27.8175 40.6373ZM24.8063 38.9248L27.7424 40.4108C31.4566 32.6429 38.9131 27.3406 47.2369 26.5486L46.9481 23.1836C42.2226 23.6309 37.6677 25.3499 33.772 28.1567C29.9576 30.9054 26.8594 34.6271 24.8063 38.9248Z" fill="#BCDFFF"/>
</g>
<defs>
<filter id="filter0_ddd_159_433" x="0" y="0" width="100" height="103" filterUnits="userSpaceOnUse" color-interpolation-filters="sRGB">
<feFlood flood-opacity="0" result="BackgroundImageFix"/>
<feColorMatrix in="SourceAlpha" type="matrix" values="0 0 0 0 0 0 0 0 0 0 0 0 0 0 0 0 0 0 127 0" result="hardAlpha"/>
<feOffset/>
<feGaussianBlur stdDeviation="1"/>
<feColorMatrix type="matrix" values="0 0 0 0 0.195833 0 0 0 0 0.618642 0 0 0 0 1 0 0 0 1 0"/>
<feBlend mode="normal" in2="BackgroundImageFix" result="effect1_dropShadow_159_433"/>
<feColorMatrix in="SourceAlpha" type="matrix" values="0 0 0 0 0 0 0 0 0 0 0 0 0 0 0 0 0 0 127 0" result="hardAlpha"/>
<feOffset/>
<feGaussianBlur stdDeviation="11.5"/>
<feColorMatrix type="matrix" values="0 0 0 0 0.554167 0 0 0 0 0.81275 0 0 0 0 1 0 0 0 1 0"/>
<feBlend mode="normal" in2="effect1_dropShadow_159_433" result="effect2_dropShadow_159_433"/>
<feColorMatrix in="SourceAlpha" type="matrix" values="0 0 0 0 0 0 0 0 0 0 0 0 0 0 0 0 0 0 127 0" result="hardAlpha"/>
<feOffset/>
<feGaussianBlur stdDeviation="11.5"/>
<feColorMatrix type="matrix" values="0 0 0 0 0.554167 0 0 0 0 0.81275 0 0 0 0 1 0 0 0 1 0"/>
<feBlend mode="normal" in2="effect2_dropShadow_159_433" result="effect3_dropShadow_159_433"/>
<feBlend mode="normal" in="SourceGraphic" in2="effect3_dropShadow_159_433" result="shape"/>
</filter>
<clipPath id="clip0_159_433">
<rect width="54" height="57" fill="white" transform="translate(23 23)"/>
</clipPath>
</defs>
</svg>
