<svg width="50" height="59" viewBox="0 0 50 59" fill="none" xmlns="http://www.w3.org/2000/svg">
<path d="M24.867 58.4871C23.5775 56.3301 22.4458 54.9097 21.8142 53.2788C19.6299 47.4918 18.8141 46.8605 12.7348 47.2024C12.1558 47.2287 11.5769 47.2024 10.7084 47.2024C10.7084 45.9661 10.6294 44.9666 10.7347 43.967C11.261 39.0744 11.3663 38.785 6.86609 37.1541C3.70803 35.9967 3.83962 33.603 3.31328 31.2093C2.70798 28.6314 2.26059 25.9484 1.12896 23.581C-0.581657 19.9247 -0.555341 16.847 2.65535 14.2955C5.12916 12.3227 6.49765 10.1131 7.10294 7.06176C7.68192 4.22087 8.99777 2.01127 12.7085 2.56367C13.9717 2.7478 15.6823 2.24801 16.6561 1.43257C19.6562 -1.01375 21.7616 -0.093098 24.1828 2.43214C26.8934 5.24672 29.8936 6.64087 34.2622 5.0363C38.7098 3.37911 45.447 8.14024 44.6312 12.3227C43.6574 17.2416 45.447 21.161 47.7366 24.6858C51.0788 29.8415 47.7892 34.8393 48.4998 39.8372C43.5258 43.7828 42.7363 52.5423 33.999 52.2266C32.999 52.2003 31.92 53.3577 30.9463 54.0416C29.2093 55.2253 27.5777 56.4879 24.867 58.4871Z" fill="#A4D4FF" fill-opacity="0.7"/>
</svg>
