<svg width="123" height="196" viewBox="0 0 123 196" fill="none" xmlns="http://www.w3.org/2000/svg">
<path d="M101.52 196C98.9471 193.043 95.9947 190.329 93.882 187.076C92.2297 184.55 91.1191 181.405 90.6316 178.421C89.8461 173.664 88.0854 169.766 84.8351 166.003C82.5056 163.289 80.5012 159.257 80.5283 155.843C80.5554 147 76.0319 142.001 68.7998 138.264C67.608 137.646 66.6329 135.98 66.1995 134.609C65.0348 130.953 64.3305 127.137 63.22 123.454C62.2449 120.283 61.1072 117.111 59.6987 114.1C57.7756 109.961 55.717 105.822 53.3334 101.924C51.2477 98.5107 48.0515 95.7153 46.3992 92.1404C44.7741 88.6462 41.7945 85.4207 42.6613 81.0126C42.7697 80.3944 42.3904 79.5074 41.9571 79.0236C39.438 76.3895 37.2169 73.0027 34.102 71.4975C30.8245 69.9117 28.3596 67.7076 25.678 65.5304C24.8384 64.8585 24.0799 64.0252 23.4028 63.1651C21.9943 61.3374 20.5045 59.5096 19.394 57.4937C18.6626 56.1766 18.5272 54.537 18.148 53.0318C17.4979 50.5321 16.8749 48.0324 16.1707 45.5595C15.6018 43.5705 15.1143 41.5008 14.2204 39.6462C13.5162 38.1947 12.4869 36.6358 11.1597 35.8294C6.41951 32.8996 5.634 27.4701 9.80533 24.0565C10.4825 23.492 11.8368 23.8146 12.8661 23.5996C13.76 23.4114 15.331 23.0889 15.3581 22.7394C15.4393 21.5568 15.1143 20.2935 14.5996 19.299C14.1121 18.3851 13.137 17.7131 12.3786 16.9336C13.4349 16.8261 14.4642 16.7186 15.5206 16.6111C15.8185 16.5842 16.1436 16.5573 16.4686 16.5304C15.3852 11.1547 9.94076 7.983 0 6.9616C0 6.31651 0 5.67142 0 5.02633C1.62519 4.40812 3.27747 3.81679 4.95684 3.19857C5.01101 2.31157 5.09227 1.12891 5.17353 0C7.93636 1.20954 10.4283 2.12342 12.7307 3.38673C13.6516 3.89742 14.5996 5.08009 14.7893 6.0746C15.5748 10.1602 18.2292 12.8212 21.2088 15.3747C22.7256 16.6648 23.8362 18.4657 25.2176 19.944C26.3823 21.2074 27.5199 22.5513 28.8743 23.5458C33.1268 26.7175 34.6979 31.1525 36.2418 36.0176C37.7045 40.6138 40.359 44.9951 43.2572 48.9462C44.8824 51.1503 48.0786 52.1448 50.4081 53.8919C51.7624 54.9133 52.7646 56.3648 53.9293 57.6012C55.6899 59.4827 57.4506 61.3911 59.2383 63.2189C61.7573 65.7992 64.466 68.2183 66.8496 70.9062C70.1 74.5348 72.5107 79.2386 76.4111 81.819C80.2033 84.3187 83.7516 86.8991 86.6769 90.232C89.6565 93.6188 92.2297 97.3818 94.8571 101.064C96.4281 103.268 98.4325 104.101 101.141 104.155C105.421 104.236 106.965 105.795 107.019 108.536C104.175 107.757 101.06 107.004 97.9991 106.064C97.024 105.768 95.778 105.311 95.3717 104.558C94.207 102.327 92.9068 103.107 91.1733 103.671C86.5415 105.204 83.0744 108.16 80.0137 111.789C78.3343 113.778 78.4155 115.659 79.6344 117.89C80.5012 119.503 81.3138 121.438 81.2596 123.185C81.07 129.448 83.562 135.146 84.6725 141.114C85.5664 145.925 87.7875 149.688 91.39 152.618C93.1777 154.069 95.7509 154.553 97.8366 155.682C99.6785 156.676 101.493 157.778 103.091 159.122C104.635 160.413 105.773 162.213 107.317 163.53C109.321 165.278 111.299 164.982 113.005 162.482C115.93 168.288 122.512 171.621 122.946 179.255C121.889 179.147 120.779 179.335 120.454 178.932C118.72 176.755 117.149 174.443 115.578 172.159C114.359 170.385 111.136 170.223 109.457 172.239C107.967 174.04 106.288 174.578 104.121 174.47C101.358 174.363 99.7327 175.599 100.22 178.502C100.816 182.104 101.683 185.679 102.252 189.307C102.604 191.511 102.604 193.769 102.793 196C102.387 196 101.954 196 101.52 196Z" fill="#A4D4FF" fill-opacity="0.7"/>
</svg>
