<svg width="98" height="67" viewBox="0 0 98 67" fill="none" xmlns="http://www.w3.org/2000/svg">
<g clip-path="url(#clip0_4_699)">
<path d="M8.6554 55.4712C7.77828 56.0157 6.74994 56.1921 4.5017 56.1921H3.55905V62.3321H0.625244V46.1807H4.54202C6.63904 46.1807 7.69259 46.3773 8.58987 46.9267C9.96099 47.7787 10.7322 49.3061 10.7322 51.1662C10.7322 53.0213 9.94083 54.6596 8.6554 55.4712ZM6.40716 49.2002C5.93835 49.0893 5.50484 49.049 4.54202 49.049H3.55905V53.3339H4.416C5.5502 53.3339 6.36683 53.2028 6.81547 52.9608C7.4355 52.613 7.77828 51.998 7.77828 51.2116C7.77828 50.2034 7.26411 49.4372 6.40716 49.2002Z" fill="white"/>
<path d="M16.5594 66.3749H13.4946L15.7227 61.1978L11.5891 50.2235H14.5028L17.2652 58.0724L20.5014 50.2235H23.41L16.5594 66.3749Z" fill="white"/>
<path d="M29.5346 62.6143C26.0211 62.6143 23.1931 59.7964 23.1931 56.2778C23.1931 52.7138 25.9354 49.9412 29.4438 49.9412C31.0922 49.9412 32.6599 50.5512 33.8143 51.6451C34.6309 52.4113 35.014 53.0465 35.4223 54.2664H32.2113C31.6316 53.1523 30.7343 52.6079 29.4489 52.6079C27.4779 52.6079 26.0664 54.1404 26.0664 56.2576C26.0664 58.3748 27.5434 59.9527 29.5144 59.9527C30.694 59.9527 31.5056 59.4687 32.2113 58.3547H35.4223C34.4394 61.0667 32.297 62.6143 29.5346 62.6143Z" fill="white"/>
<path d="M39.9646 49.044V62.3321H37.0308V46.1807H46.6034V49.044H39.9646Z" fill="white"/>
<path d="M52.7534 62.332V54.3975L48.2115 62.332H45.0408V50.2235H47.8889V58.1581L52.4307 50.2235H55.6015V62.332H52.7534Z" fill="white"/>
<path d="M67.0595 64.9533V62.332H59.972V64.9533H57.1038V59.4687H58.732L62.3715 50.2235H64.6399L68.2794 59.4687H69.9076V64.9533H67.0595ZM63.5057 54.3118L61.7263 59.4687H65.2599L63.5057 54.3118Z" fill="white"/>
<path d="M77.6805 62.6143C76.2237 62.6143 75.1096 62.1758 74.041 61.1928V66.3699H71.1929V50.2235H73.8041V51.6451C74.7265 50.5512 76.0926 49.9412 77.7007 49.9412C81.1285 49.9412 83.6086 52.5878 83.6086 56.2374C83.6136 59.9073 81.1083 62.6143 77.6805 62.6143ZM77.3377 52.6079C75.3667 52.6079 73.8696 54.1807 73.8696 56.2576C73.8696 58.3748 75.3667 59.9527 77.3831 59.9527C79.2684 59.9527 80.7454 58.3547 80.7454 56.303C80.7403 54.2009 79.2633 52.6079 77.3377 52.6079Z" fill="white"/>
<path d="M91.0588 62.6143C87.5906 62.6143 84.7627 59.7712 84.7627 56.2778C84.7627 52.8045 87.5906 49.9412 91.0386 49.9412C94.6126 49.9412 97.3801 52.7591 97.3801 56.3635C97.375 59.7762 94.5068 62.6143 91.0588 62.6143ZM91.0588 52.6079C89.1936 52.6079 87.631 54.2462 87.631 56.2374C87.631 58.3093 89.1533 59.9527 91.0789 59.9527C92.9642 59.9527 94.5068 58.3143 94.5068 56.2828C94.5068 54.2664 92.9642 52.6079 91.0588 52.6079Z" fill="white"/>
<path d="M57.7837 34.4503C64.3974 31.34 67.2052 28.5271 68.2638 26.2284C65.577 34.5864 57.8997 40.2979 49.0731 40.2525C45.7763 40.2374 51.9565 37.1976 57.7837 34.4503Z" fill="white"/>
<path d="M29.5199 24.6455C30.0038 27.8919 32.736 34.2637 39.763 37.9436C39.6017 37.8529 39.4454 37.7622 39.2992 37.6664C33.0233 33.5227 46.6892 29.4294 57.3658 24.5799C64.5491 21.3184 69.091 18.7626 68.6221 15.6019C68.1382 12.3605 65.4111 5.99876 58.3942 2.31378C58.5504 2.39948 58.7017 2.49022 58.8378 2.58096C65.1137 6.72467 51.4478 10.818 40.7712 15.6674C33.5929 18.929 29.046 21.4847 29.5199 24.6455Z" fill="white"/>
<path d="M40.358 5.80727C33.7443 8.91757 30.9365 11.7305 29.8779 14.0241C32.5647 5.67116 40.242 -0.0453451 49.0686 2.39782e-05C52.3704 0.015147 46.1903 3.05992 40.358 5.80727Z" fill="white"/>
<path d="M56.6954 7.73789C58.4396 6.69944 59.7401 5.83743 59.8309 4.87459C59.8914 4.21422 59.5083 3.14553 57.6179 2.07683C57.0785 1.77437 56.1964 1.3963 55.6167 1.21986C53.7465 0.720801 52.1788 0.46875 50.6464 0.46875C50.5506 0.86699 49.9356 1.60802 48.4939 2.45995C49.2853 3.5841 51.5739 5.32829 56.6954 7.73789Z" fill="white"/>
<path d="M66.4038 20.6026C64.4127 22.0443 61.6755 23.4356 57.9502 25.1244C55.8835 26.062 53.6957 26.9744 51.5836 27.8617C51.0694 28.0784 50.5149 28.3053 50.0007 28.522C52.0524 29.4193 53.5344 30.0394 55.2685 30.9216C56.4884 31.5416 57.6125 32.1717 58.7417 33.0237C65.2293 29.9285 68.3395 25.9158 68.516 24.3733C68.6924 22.8559 67.9514 21.9385 66.4038 20.6026Z" fill="white"/>
<path d="M31.8685 19.7254C33.8194 18.3038 36.5465 16.6806 40.2717 14.9868C42.3687 14.0341 44.4506 13.167 46.5476 12.2899C47.0366 12.0883 47.5256 11.8816 48.0145 11.6749C42.1369 9.18968 40.5792 8.0857 39.44 7.25897C33.1842 10.1878 29.6556 14.1853 29.5044 15.6875C29.3582 17.1242 30.0841 18.3694 31.8685 19.7254Z" fill="white"/>
<path d="M41.4971 32.5297C39.3799 33.7193 38.2406 34.8838 38.5935 36.013C39.0119 37.359 41.5071 38.6444 42.9186 39.1283C44.4409 39.5266 46.0742 39.7736 47.3848 39.7786C47.4554 38.9973 49.1189 37.9941 49.5877 37.7068C48.645 36.4415 46.054 34.6872 41.4971 32.5297Z" fill="white"/>
</g>
<defs>
<clipPath id="clip0_4_699">
<rect width="96.75" height="66.375" fill="white" transform="translate(0.625)"/>
</clipPath>
</defs>
</svg>
